<?xml version="1.0" encoding="utf-8"?>
<!-- Generator: Adobe Illustrator 16.0.4, SVG Export Plug-In . SVG Version: 6.00 Build 0)  -->
<!DOCTYPE svg PUBLIC "-//W3C//DTD SVG 1.1//EN" "http://www.w3.org/Graphics/SVG/1.1/DTD/svg11.dtd">
<svg version="1.1" id="レイヤー_1" xmlns="http://www.w3.org/2000/svg" xmlns:xlink="http://www.w3.org/1999/xlink" x="0px"
	 y="0px" width="256px" height="256px" viewBox="0 0 256 256" enable-background="new 0 0 256 256" xml:space="preserve">
<g>
	<path d="M97.5,125.65c-12.5-9.07-21.75-20.9-21.75-39.32c0-25.02,17.5-48.95,53-48.95c32.75,0,53.75,20.07,53.75,50.32
		c0,27.5-19.5,50.05-21.5,52.25c14.5,9.08,25.5,21.45,25.5,41.52c0,30.25-24.25,55.82-58.25,55.82c-31.75,0-59.5-22.27-59.5-58.85
		C68.75,147.38,93.5,128.4,97.5,125.65z M111.75,133.9c-5.5,3.57-25.25,18.97-25.25,43.72c0,26.12,20.5,42.07,41.75,42.07
		c20.75,0,40.5-15.67,40.5-38.5C168.75,156.17,137.75,147.65,111.75,133.9z M146.75,132.25C150,128.95,165,111.63,165,88.53
		c0-20.62-15-33.55-36.25-33.55c-22.5,0-35.5,14.3-35.5,31.62C93.25,111.63,121.5,120.15,146.75,132.25z"/>
</g>
</svg>
