<?xml version="1.0" encoding="utf-8"?>
<!-- Generator: Adobe Illustrator 16.0.4, SVG Export Plug-In . SVG Version: 6.00 Build 0)  -->
<!DOCTYPE svg PUBLIC "-//W3C//DTD SVG 1.1//EN" "http://www.w3.org/Graphics/SVG/1.1/DTD/svg11.dtd">
<svg version="1.1" id="レイヤー_1" xmlns="http://www.w3.org/2000/svg" xmlns:xlink="http://www.w3.org/1999/xlink" x="0px"
	 y="0px" width="256px" height="256px" viewBox="0 0 256 256" enable-background="new 0 0 256 256" xml:space="preserve">
<g>
	<path d="M16.88,216.95h39.5V75.05c0-5.5,0.25-10.73,0.25-10.73h-0.5c0,0-1.75,4.12-8.75,11.55L28.63,96.5l-11-12.37l39.75-43.45h16
		v176.27h38.75V234H16.88V216.95z"/>
	<path d="M120.63,146.55c0-48.4,23-109.17,77.25-109.17c19.5,0,32.25,7.97,32.25,7.97l-6.5,16.77c0,0-11-6.88-25.5-6.88
		c-36.75,0-55.5,39.87-58.5,77.55h0.5c8.5-13.75,26.25-22.55,44.5-22.55c32,0,54.75,25.85,54.75,62.42
		c0,40.15-24.5,64.62-55.25,64.62C145.88,237.3,120.63,198.8,120.63,146.55z M221.63,172.95c0-27.5-15.75-45.65-39.75-45.65
		c-23.5,0-42.5,17.33-42.5,33c0,25.85,18.25,59.12,44.5,59.12C207.63,219.42,221.63,199.62,221.63,172.95z"/>
</g>
</svg>
