<?xml version="1.0" encoding="utf-8"?>
<!-- Generator: Adobe Illustrator 16.0.4, SVG Export Plug-In . SVG Version: 6.00 Build 0)  -->
<!DOCTYPE svg PUBLIC "-//W3C//DTD SVG 1.1//EN" "http://www.w3.org/Graphics/SVG/1.1/DTD/svg11.dtd">
<svg version="1.1" id="レイヤー_1" xmlns="http://www.w3.org/2000/svg" xmlns:xlink="http://www.w3.org/1999/xlink" x="0px"
	 y="0px" width="256px" height="256px" viewBox="0 0 256 256" enable-background="new 0 0 256 256" xml:space="preserve">
<g>
	<path d="M16.63,216.95h39.5V75.05c0-5.5,0.25-10.73,0.25-10.73h-0.5c0,0-1.75,4.12-8.75,11.55L28.38,96.5l-11-12.37l39.75-43.45h16
		v176.27h38.75V234H16.63V216.95z"/>
	<path d="M112.63,168l86.5-127.32h18.75V163.6h25v16.77h-25V234h-17.25v-53.62h-88V168z M200.63,163.6V82.75
		c0-8.25,0.75-18.15,0.75-18.15h-0.5c0,0-4,7.7-8.75,14.57l-58.5,83.87v0.55H200.63z"/>
</g>
</svg>
