<?xml version="1.0" encoding="utf-8"?>
<!-- Generator: Adobe Illustrator 16.0.4, SVG Export Plug-In . SVG Version: 6.00 Build 0)  -->
<!DOCTYPE svg PUBLIC "-//W3C//DTD SVG 1.1//EN" "http://www.w3.org/Graphics/SVG/1.1/DTD/svg11.dtd">
<svg version="1.1" id="レイヤー_1" xmlns="http://www.w3.org/2000/svg" xmlns:xlink="http://www.w3.org/1999/xlink" x="0px"
	 y="0px" width="256px" height="256px" viewBox="0 0 256 256" enable-background="new 0 0 256 256" xml:space="preserve">
<g>
	<path d="M13.13,216.95h39.5V75.05c0-5.5,0.25-10.73,0.25-10.73h-0.5c0,0-1.75,4.12-8.75,11.55L24.88,96.5l-11-12.37l39.75-43.45h16
		v176.27h38.75V234H13.13V216.95z"/>
	<path d="M118.12,137.2c0-55.55,15-99.82,60.75-99.82s60.5,44.27,60.5,99.82c0,56.1-14.75,100.1-60.5,100.1
		S118.12,193.3,118.12,137.2z M221.37,137.2c0-45.92-9.25-81.95-42.5-81.95c-33.5,0-42.75,36.02-42.75,81.95
		c0,46.2,9.25,82.22,42.75,82.22C212.12,219.42,221.37,183.4,221.37,137.2z"/>
</g>
</svg>
