<?xml version="1.0" encoding="utf-8"?>
<!-- Generator: Adobe Illustrator 16.0.4, SVG Export Plug-In . SVG Version: 6.00 Build 0)  -->
<!DOCTYPE svg PUBLIC "-//W3C//DTD SVG 1.1//EN" "http://www.w3.org/Graphics/SVG/1.1/DTD/svg11.dtd">
<svg version="1.1" id="レイヤー_1" xmlns="http://www.w3.org/2000/svg" xmlns:xlink="http://www.w3.org/1999/xlink" x="0px"
	 y="0px" width="256px" height="256px" viewBox="0 0 256 256" enable-background="new 0 0 256 256" xml:space="preserve">
<g>
	<path d="M16,216.95h39.5V75.05c0-5.5,0.25-10.73,0.25-10.73h-0.5c0,0-1.75,4.12-8.75,11.55L27.75,96.5l-11-12.37L56.5,40.68h16
		v176.27h38.75V234H16V216.95z"/>
	<path d="M148.25,125.65c-12.5-9.07-21.75-20.9-21.75-39.32c0-25.02,17.5-48.95,53-48.95c32.75,0,53.75,20.07,53.75,50.32
		c0,27.5-19.5,50.05-21.5,52.25c14.5,9.08,25.5,21.45,25.5,41.52c0,30.25-24.25,55.82-58.25,55.82c-31.75,0-59.5-22.27-59.5-58.85
		C119.5,147.38,144.25,128.4,148.25,125.65z M162.5,133.9c-5.5,3.57-25.25,18.97-25.25,43.72c0,26.12,20.5,42.07,41.75,42.07
		c20.75,0,40.5-15.67,40.5-38.5C219.5,156.17,188.5,147.65,162.5,133.9z M197.5,132.25c3.25-3.3,18.25-20.62,18.25-43.72
		c0-20.62-15-33.55-36.25-33.55c-22.5,0-35.5,14.3-35.5,31.62C144,111.63,172.25,120.15,197.5,132.25z"/>
</g>
</svg>
