<?xml version="1.0" encoding="utf-8"?>
<!-- Generator: Adobe Illustrator 16.0.4, SVG Export Plug-In . SVG Version: 6.00 Build 0)  -->
<!DOCTYPE svg PUBLIC "-//W3C//DTD SVG 1.1//EN" "http://www.w3.org/Graphics/SVG/1.1/DTD/svg11.dtd">
<svg version="1.1" id="レイヤー_1" xmlns="http://www.w3.org/2000/svg" xmlns:xlink="http://www.w3.org/1999/xlink" x="0px"
	 y="0px" width="256px" height="256px" viewBox="0 0 256 256" enable-background="new 0 0 256 256" xml:space="preserve">
<g>
	<path d="M1.75,221.62c0-67.92,90-76.72,90-128.97c0-21.17-14.5-37.12-36.5-37.12C29.5,55.53,16,81.93,16,81.93L3,72.3
		c0,0,16-34.92,53.25-34.92c33.5,0,53.5,23.92,53.5,54.17c0,64.9-88.75,73.97-89,125.4h91.75V234H2.75
		C2,229.6,1.75,225.47,1.75,221.62z"/>
	<path d="M130.5,137.2c0-55.55,15-99.82,60.75-99.82s60.5,44.27,60.5,99.82c0,56.1-14.75,100.1-60.5,100.1S130.5,193.3,130.5,137.2z
		 M233.75,137.2c0-45.92-9.25-81.95-42.5-81.95c-33.5,0-42.75,36.02-42.75,81.95c0,46.2,9.25,82.22,42.75,82.22
		C224.5,219.42,233.75,183.4,233.75,137.2z"/>
</g>
</svg>
