<?xml version="1.0" encoding="utf-8"?>
<!-- Generator: Adobe Illustrator 16.0.4, SVG Export Plug-In . SVG Version: 6.00 Build 0)  -->
<!DOCTYPE svg PUBLIC "-//W3C//DTD SVG 1.1//EN" "http://www.w3.org/Graphics/SVG/1.1/DTD/svg11.dtd">
<svg version="1.1" id="レイヤー_1" xmlns="http://www.w3.org/2000/svg" xmlns:xlink="http://www.w3.org/1999/xlink" x="0px"
	 y="0px" width="256px" height="256px" viewBox="0 0 256 256" enable-background="new 0 0 256 256" xml:space="preserve">
<g>
	<path d="M17,216.95h39.5V75.05c0-5.5,0.25-10.73,0.25-10.73h-0.5c0,0-1.75,4.12-8.75,11.55L28.75,96.5l-11-12.37L57.5,40.68h16
		v176.27h38.75V234H17V216.95z"/>
	<path d="M127.25,229.32l6.5-16.77c0,0,11,6.88,25.5,6.88c37,0,55.5-39.87,58.75-77.55h-0.5c-8.75,13.75-26.5,22.55-44.75,22.55
		c-32,0-54.5-25.85-54.5-62.42c0-40.15,24.25-64.62,55-64.62c38.25,0,63.5,38.5,63.5,90.75c0,48.4-22.75,109.17-77.25,109.17
		C140.25,237.3,127.25,229.32,127.25,229.32z M218,114.38c0-25.85-18.25-59.12-44.5-59.12c-23.75,0-37.75,19.8-37.75,46.47
		c0,27.5,15.75,45.65,39.75,45.65C199.25,147.38,218,130.05,218,114.38z"/>
</g>
</svg>
