<?xml version="1.0" encoding="utf-8"?>
<!-- Generator: Adobe Illustrator 16.0.4, SVG Export Plug-In . SVG Version: 6.00 Build 0)  -->
<!DOCTYPE svg PUBLIC "-//W3C//DTD SVG 1.1//EN" "http://www.w3.org/Graphics/SVG/1.1/DTD/svg11.dtd">
<svg version="1.1" id="レイヤー_1" xmlns="http://www.w3.org/2000/svg" xmlns:xlink="http://www.w3.org/1999/xlink" x="0px"
	 y="0px" width="256px" height="256px" viewBox="0 0 256 256" enable-background="new 0 0 256 256" xml:space="preserve">
<g>
	<path d="M17.25,196.32c0,0,18,22.83,45,22.83c21,0,40.25-17.05,40.25-41.8c0-27.22-21.25-41.25-44.25-41.25h-12L42,124.83l44-56.65
		c4.75-6.05,9.25-10.72,9.25-10.72V56.9c0,0-5,0.83-14.25,0.83H15V40.68h102.75v12.65l-52.5,66.55c22.25,1.38,55,15.12,55,56.92
		c0,33-24.5,60.5-57.75,60.5c-34.5,0-55.75-26.4-55.75-26.4L17.25,196.32z"/>
	<path d="M145.5,196.6c0,0,13,22.55,39.75,22.55c24.25,0,43.75-18.97,43.75-45.38c0-26.4-19.5-45.37-44.5-45.37
		c-18.75,0-32,10.45-32,10.45l-11-4.4l9.5-93.77h85v17.05h-70l-5,49.5c-0.75,6.87-1.75,11-1.75,11h0.5c0,0,11-7.42,26.75-7.42
		c35.25,0,60.5,28.05,60.5,62.97c0,35.75-26.75,63.52-61,63.52c-35,0-51.5-27.5-51.5-27.5L145.5,196.6z"/>
</g>
</svg>
