<?xml version="1.0" encoding="utf-8"?>
<!-- Generator: Adobe Illustrator 16.0.4, SVG Export Plug-In . SVG Version: 6.00 Build 0)  -->
<!DOCTYPE svg PUBLIC "-//W3C//DTD SVG 1.1//EN" "http://www.w3.org/Graphics/SVG/1.1/DTD/svg11.dtd">
<svg version="1.1" id="レイヤー_1" xmlns="http://www.w3.org/2000/svg" xmlns:xlink="http://www.w3.org/1999/xlink" x="0px"
	 y="0px" width="256px" height="256px" viewBox="0 0 256 256" enable-background="new 0 0 256 256" xml:space="preserve">
<g>
	<path d="M5.5,221.62c0-67.92,90-76.72,90-128.97C95.5,71.48,81,55.53,59,55.53c-25.75,0-39.25,26.4-39.25,26.4l-13-9.62
		c0,0,16-34.92,53.25-34.92c33.5,0,53.5,23.92,53.5,54.17c0,64.9-88.75,73.97-89,125.4h91.75V234H6.5
		C5.75,229.6,5.5,225.47,5.5,221.62z"/>
	<path d="M133,146.55c0-48.4,23-109.17,77.25-109.17c19.5,0,32.25,7.97,32.25,7.97L236,62.13c0,0-11-6.88-25.5-6.88
		c-36.75,0-55.5,39.87-58.5,77.55h0.5c8.5-13.75,26.25-22.55,44.5-22.55c32,0,54.75,25.85,54.75,62.42
		c0,40.15-24.5,64.62-55.25,64.62C158.25,237.3,133,198.8,133,146.55z M234,172.95c0-27.5-15.75-45.65-39.75-45.65
		c-23.5,0-42.5,17.33-42.5,33c0,25.85,18.25,59.12,44.5,59.12C220,219.42,234,199.62,234,172.95z"/>
</g>
</svg>
