<?xml version="1.0" encoding="utf-8"?>
<!-- Generator: Adobe Illustrator 16.0.4, SVG Export Plug-In . SVG Version: 6.00 Build 0)  -->
<!DOCTYPE svg PUBLIC "-//W3C//DTD SVG 1.1//EN" "http://www.w3.org/Graphics/SVG/1.1/DTD/svg11.dtd">
<svg version="1.1" id="レイヤー_1" xmlns="http://www.w3.org/2000/svg" xmlns:xlink="http://www.w3.org/1999/xlink" x="0px"
	 y="0px" width="256px" height="256px" viewBox="0 0 256 256" enable-background="new 0 0 256 256" xml:space="preserve">
<g>
	<path d="M5.63,221.62c0-67.92,90-76.72,90-128.97c0-21.17-14.5-37.12-36.5-37.12c-25.75,0-39.25,26.4-39.25,26.4l-13-9.62
		c0,0,16-34.92,53.25-34.92c33.5,0,53.5,23.92,53.5,54.17c0,64.9-88.75,73.97-89,125.4h91.75V234H6.63
		C5.88,229.6,5.63,225.47,5.63,221.62z"/>
	<path d="M139.62,229.32l6.5-16.77c0,0,11,6.88,25.5,6.88c37,0,55.5-39.87,58.75-77.55h-0.5c-8.75,13.75-26.5,22.55-44.75,22.55
		c-32,0-54.5-25.85-54.5-62.42c0-40.15,24.25-64.62,55-64.62c38.25,0,63.5,38.5,63.5,90.75c0,48.4-22.75,109.17-77.25,109.17
		C152.62,237.3,139.62,229.32,139.62,229.32z M230.38,114.38c0-25.85-18.25-59.12-44.5-59.12c-23.75,0-37.75,19.8-37.75,46.47
		c0,27.5,15.75,45.65,39.75,45.65C211.62,147.38,230.38,130.05,230.38,114.38z"/>
</g>
</svg>
