<?xml version="1.0" encoding="utf-8"?>
<!-- Generator: Adobe Illustrator 16.0.4, SVG Export Plug-In . SVG Version: 6.00 Build 0)  -->
<!DOCTYPE svg PUBLIC "-//W3C//DTD SVG 1.1//EN" "http://www.w3.org/Graphics/SVG/1.1/DTD/svg11.dtd">
<svg version="1.1" id="レイヤー_1" xmlns="http://www.w3.org/2000/svg" xmlns:xlink="http://www.w3.org/1999/xlink" x="0px"
	 y="0px" width="256px" height="256px" viewBox="0 0 256 256" enable-background="new 0 0 256 256" xml:space="preserve">
<g>
	<path d="M11.38,196.32c0,0,18,22.83,45,22.83c21,0,40.25-17.05,40.25-41.8c0-27.22-21.25-41.25-44.25-41.25h-12l-4.25-11.27
		l44-56.65c4.75-6.05,9.25-10.72,9.25-10.72V56.9c0,0-5,0.83-14.25,0.83h-66V40.68h102.75v12.65l-52.5,66.55
		c22.25,1.38,55,15.12,55,56.92c0,33-24.5,60.5-57.75,60.5c-34.5,0-55.75-26.4-55.75-26.4L11.38,196.32z"/>
	<path d="M127.62,137.2c0-55.55,15-99.82,60.75-99.82s60.5,44.27,60.5,99.82c0,56.1-14.75,100.1-60.5,100.1
		S127.62,193.3,127.62,137.2z M230.88,137.2c0-45.92-9.25-81.95-42.5-81.95c-33.5,0-42.75,36.02-42.75,81.95
		c0,46.2,9.25,82.22,42.75,82.22C221.62,219.42,230.88,183.4,230.88,137.2z"/>
</g>
</svg>
