<?xml version="1.0" encoding="utf-8"?>
<!-- Generator: Adobe Illustrator 16.0.4, SVG Export Plug-In . SVG Version: 6.00 Build 0)  -->
<!DOCTYPE svg PUBLIC "-//W3C//DTD SVG 1.1//EN" "http://www.w3.org/Graphics/SVG/1.1/DTD/svg11.dtd">
<svg version="1.1" id="レイヤー_1" xmlns="http://www.w3.org/2000/svg" xmlns:xlink="http://www.w3.org/1999/xlink" x="0px"
	 y="0px" width="256px" height="256px" viewBox="0 0 256 256" enable-background="new 0 0 256 256" xml:space="preserve">
<g>
	<path d="M16.38,196.32c0,0,18,22.83,45,22.83c21,0,40.25-17.05,40.25-41.8c0-27.22-21.25-41.25-44.25-41.25h-12l-4.25-11.27
		l44-56.65c4.75-6.05,9.25-10.72,9.25-10.72V56.9c0,0-5,0.83-14.25,0.83h-66V40.68h102.75v12.65l-52.5,66.55
		c22.25,1.38,55,15.12,55,56.92c0,33-24.5,60.5-57.75,60.5c-34.5,0-55.75-26.4-55.75-26.4L16.38,196.32z"/>
	<path d="M135.13,221.62c0-67.92,90-76.72,90-128.97c0-21.17-14.5-37.12-36.5-37.12c-25.75,0-39.25,26.4-39.25,26.4l-13-9.62
		c0,0,16-34.92,53.25-34.92c33.5,0,53.5,23.92,53.5,54.17c0,64.9-88.75,73.97-89,125.4h91.75V234H136.13
		C135.38,229.6,135.13,225.47,135.13,221.62z"/>
</g>
</svg>
