<?xml version="1.0" encoding="utf-8"?>
<!-- Generator: Adobe Illustrator 16.0.4, SVG Export Plug-In . SVG Version: 6.00 Build 0)  -->
<!DOCTYPE svg PUBLIC "-//W3C//DTD SVG 1.1//EN" "http://www.w3.org/Graphics/SVG/1.1/DTD/svg11.dtd">
<svg version="1.1" id="レイヤー_1" xmlns="http://www.w3.org/2000/svg" xmlns:xlink="http://www.w3.org/1999/xlink" x="0px"
	 y="0px" width="256px" height="256px" viewBox="0 0 256 256" enable-background="new 0 0 256 256" xml:space="preserve">
<g>
	<path d="M9.25,221.62c0-67.92,90-76.72,90-128.97c0-21.17-14.5-37.12-36.5-37.12c-25.75,0-39.25,26.4-39.25,26.4l-13-9.62
		c0,0,16-34.92,53.25-34.92c33.5,0,53.5,23.92,53.5,54.17c0,64.9-88.75,73.97-89,125.4H120V234H10.25
		C9.5,229.6,9.25,225.47,9.25,221.62z"/>
	<path d="M135.5,221.62c0-67.92,90-76.72,90-128.97c0-21.17-14.5-37.12-36.5-37.12c-25.75,0-39.25,26.4-39.25,26.4l-13-9.62
		c0,0,16-34.92,53.25-34.92c33.5,0,53.5,23.92,53.5,54.17c0,64.9-88.75,73.97-89,125.4h91.75V234H136.5
		C135.75,229.6,135.5,225.47,135.5,221.62z"/>
</g>
</svg>
