<?xml version="1.0" encoding="utf-8"?>
<!-- Generator: Adobe Illustrator 16.0.4, SVG Export Plug-In . SVG Version: 6.00 Build 0)  -->
<!DOCTYPE svg PUBLIC "-//W3C//DTD SVG 1.1//EN" "http://www.w3.org/Graphics/SVG/1.1/DTD/svg11.dtd">
<svg version="1.1" id="レイヤー_1" xmlns="http://www.w3.org/2000/svg" xmlns:xlink="http://www.w3.org/1999/xlink" x="0px"
	 y="0px" width="256px" height="256px" viewBox="0 0 256 256" enable-background="new 0 0 256 256" xml:space="preserve">
<g>
	<path d="M4.63,221.62c0-67.92,90-76.72,90-128.97c0-21.17-14.5-37.12-36.5-37.12c-25.75,0-39.25,26.4-39.25,26.4l-13-9.62
		c0,0,16-34.92,53.25-34.92c33.5,0,53.5,23.92,53.5,54.17c0,64.9-88.75,73.97-89,125.4h91.75V234H5.63
		C4.88,229.6,4.63,225.47,4.63,221.62z"/>
	<path d="M160.62,125.65c-12.5-9.07-21.75-20.9-21.75-39.32c0-25.02,17.5-48.95,53-48.95c32.75,0,53.75,20.07,53.75,50.32
		c0,27.5-19.5,50.05-21.5,52.25c14.5,9.08,25.5,21.45,25.5,41.52c0,30.25-24.25,55.82-58.25,55.82c-31.75,0-59.5-22.27-59.5-58.85
		C131.88,147.38,156.62,128.4,160.62,125.65z M174.88,133.9c-5.5,3.57-25.25,18.97-25.25,43.72c0,26.12,20.5,42.07,41.75,42.07
		c20.75,0,40.5-15.67,40.5-38.5C231.88,156.17,200.88,147.65,174.88,133.9z M209.88,132.25c3.25-3.3,18.25-20.62,18.25-43.72
		c0-20.62-15-33.55-36.25-33.55c-22.5,0-35.5,14.3-35.5,31.62C156.38,111.63,184.62,120.15,209.88,132.25z"/>
</g>
</svg>
