<?xml version="1.0" encoding="utf-8"?>
<!-- Generator: Adobe Illustrator 16.0.4, SVG Export Plug-In . SVG Version: 6.00 Build 0)  -->
<!DOCTYPE svg PUBLIC "-//W3C//DTD SVG 1.1//EN" "http://www.w3.org/Graphics/SVG/1.1/DTD/svg11.dtd">
<svg version="1.1" id="レイヤー_1" xmlns="http://www.w3.org/2000/svg" xmlns:xlink="http://www.w3.org/1999/xlink" x="0px"
	 y="0px" width="256px" height="256px" viewBox="0 0 256 256" enable-background="new 0 0 256 256" xml:space="preserve">
<g>
	<path d="M1.08,168L84.13,40.68h18V163.6h24v16.77h-24V234H85.57v-53.62H1.08V168z M85.57,163.6V82.75c0-8.25,0.72-18.15,0.72-18.15
		h-0.48c0,0-3.84,7.7-8.4,14.57l-56.16,83.87v0.55H85.57z"/>
	<path d="M129.96,168L213,40.68h18V163.6h24v16.77h-24V234h-16.56v-53.62h-84.48V168z M214.44,163.6V82.75
		c0-8.25,0.72-18.15,0.72-18.15h-0.48c0,0-3.84,7.7-8.4,14.57l-56.16,83.87v0.55H214.44z"/>
</g>
</svg>
