<?xml version="1.0" encoding="utf-8"?>
<!-- Generator: Adobe Illustrator 16.0.4, SVG Export Plug-In . SVG Version: 6.00 Build 0)  -->
<!DOCTYPE svg PUBLIC "-//W3C//DTD SVG 1.1//EN" "http://www.w3.org/Graphics/SVG/1.1/DTD/svg11.dtd">
<svg version="1.1" id="レイヤー_1" xmlns="http://www.w3.org/2000/svg" xmlns:xlink="http://www.w3.org/1999/xlink" x="0px"
	 y="0px" width="256px" height="256px" viewBox="0 0 256 256" enable-background="new 0 0 256 256" xml:space="preserve">
<g>
	<path d="M11.75,196.32c0,0,18,22.83,45,22.83c21,0,40.25-17.05,40.25-41.8c0-27.22-21.25-41.25-44.25-41.25h-12l-4.25-11.27
		l44-56.65c4.75-6.05,9.25-10.72,9.25-10.72V56.9c0,0-5,0.83-14.25,0.83h-66V40.68h102.75v12.65l-52.5,66.55
		c22.25,1.38,55,15.12,55,56.92c0,33-24.5,60.5-57.75,60.5c-34.5,0-55.75-26.4-55.75-26.4L11.75,196.32z"/>
	<path d="M160.25,125.65c-12.5-9.07-21.75-20.9-21.75-39.32c0-25.02,17.5-48.95,53-48.95c32.75,0,53.75,20.07,53.75,50.32
		c0,27.5-19.5,50.05-21.5,52.25c14.5,9.08,25.5,21.45,25.5,41.52c0,30.25-24.25,55.82-58.25,55.82c-31.75,0-59.5-22.27-59.5-58.85
		C131.5,147.38,156.25,128.4,160.25,125.65z M174.5,133.9c-5.5,3.57-25.25,18.97-25.25,43.72c0,26.12,20.5,42.07,41.75,42.07
		c20.75,0,40.5-15.67,40.5-38.5C231.5,156.17,200.5,147.65,174.5,133.9z M209.5,132.25c3.25-3.3,18.25-20.62,18.25-43.72
		c0-20.62-15-33.55-36.25-33.55c-22.5,0-35.5,14.3-35.5,31.62C156,111.63,184.25,120.15,209.5,132.25z"/>
</g>
</svg>
