<?xml version="1.0" encoding="utf-8"?>
<!-- Generator: Adobe Illustrator 16.0.4, SVG Export Plug-In . SVG Version: 6.00 Build 0)  -->
<!DOCTYPE svg PUBLIC "-//W3C//DTD SVG 1.1//EN" "http://www.w3.org/Graphics/SVG/1.1/DTD/svg11.dtd">
<svg version="1.1" id="レイヤー_1" xmlns="http://www.w3.org/2000/svg" xmlns:xlink="http://www.w3.org/1999/xlink" x="0px"
	 y="0px" width="256px" height="256px" viewBox="0 0 256 256" enable-background="new 0 0 256 256" xml:space="preserve">
<g>
	<path d="M12.13,196.6c0,0,13,22.55,39.75,22.55c24.25,0,43.75-18.97,43.75-45.38c0-26.4-19.5-45.37-44.5-45.37
		c-18.75,0-32,10.45-32,10.45l-11-4.4l9.5-93.77h85v17.05h-70l-5,49.5c-0.75,6.87-1.75,11-1.75,11h0.5c0,0,11-7.42,26.75-7.42
		c35.25,0,60.5,28.05,60.5,62.97c0,35.75-26.75,63.52-61,63.52c-35,0-51.5-27.5-51.5-27.5L12.13,196.6z"/>
	<path d="M129.62,137.2c0-55.55,15-99.82,60.75-99.82s60.5,44.27,60.5,99.82c0,56.1-14.75,100.1-60.5,100.1
		S129.62,193.3,129.62,137.2z M232.88,137.2c0-45.92-9.25-81.95-42.5-81.95c-33.5,0-42.75,36.02-42.75,81.95
		c0,46.2,9.25,82.22,42.75,82.22C223.62,219.42,232.88,183.4,232.88,137.2z"/>
</g>
</svg>
