<?xml version="1.0" encoding="utf-8"?>
<!-- Generator: Adobe Illustrator 16.0.4, SVG Export Plug-In . SVG Version: 6.00 Build 0)  -->
<!DOCTYPE svg PUBLIC "-//W3C//DTD SVG 1.1//EN" "http://www.w3.org/Graphics/SVG/1.1/DTD/svg11.dtd">
<svg version="1.1" id="レイヤー_1" xmlns="http://www.w3.org/2000/svg" xmlns:xlink="http://www.w3.org/1999/xlink" x="0px"
	 y="0px" width="256px" height="256px" viewBox="0 0 256 256" enable-background="new 0 0 256 256" xml:space="preserve">
<g>
	<path d="M11.88,168L94.92,40.68h18V163.6h24v16.77h-24V234H96.36v-53.62H11.88V168z M96.36,163.6V82.75
		c0-8.25,0.72-18.15,0.72-18.15H96.6c0,0-3.84,7.7-8.4,14.57l-56.16,83.87v0.55H96.36z"/>
	<path d="M146.28,196.32c0,0,17.28,22.83,43.2,22.83c20.16,0,38.64-17.05,38.64-41.8c0-27.22-20.4-41.25-42.48-41.25h-11.52
		l-4.08-11.27l42.24-56.65c4.56-6.05,8.88-10.72,8.88-10.72V56.9c0,0-4.8,0.83-13.68,0.83h-63.36V40.68h98.64v12.65l-50.4,66.55
		c21.36,1.38,52.8,15.12,52.8,56.92c0,33-23.52,60.5-55.44,60.5c-33.12,0-53.52-26.4-53.52-26.4L146.28,196.32z"/>
</g>
</svg>
