<?xml version="1.0" encoding="utf-8"?>
<!-- Generator: Adobe Illustrator 16.0.4, SVG Export Plug-In . SVG Version: 6.00 Build 0)  -->
<!DOCTYPE svg PUBLIC "-//W3C//DTD SVG 1.1//EN" "http://www.w3.org/Graphics/SVG/1.1/DTD/svg11.dtd">
<svg version="1.1" id="レイヤー_1" xmlns="http://www.w3.org/2000/svg" xmlns:xlink="http://www.w3.org/1999/xlink" x="0px"
	 y="0px" width="256px" height="256px" viewBox="0 0 256 256" enable-background="new 0 0 256 256" xml:space="preserve">
<g>
	<path d="M8.04,168L91.08,40.68h18V163.6h24v16.77h-24V234H92.52v-53.62H8.04V168z M92.52,163.6V82.75c0-8.25,0.72-18.15,0.72-18.15
		h-0.48c0,0-3.84,7.7-8.4,14.57L28.2,163.05v0.55H92.52z"/>
	<path d="M143.4,229.32l6.24-16.77c0,0,10.56,6.88,24.48,6.88c35.52,0,53.28-39.87,56.4-77.55h-0.48
		c-8.4,13.75-25.44,22.55-42.96,22.55c-30.72,0-52.32-25.85-52.32-62.42c0-40.15,23.28-64.62,52.8-64.62
		c36.72,0,60.96,38.5,60.96,90.75c0,48.4-21.84,109.17-74.16,109.17C155.88,237.3,143.4,229.32,143.4,229.32z M230.52,114.38
		c0-25.85-17.52-59.12-42.72-59.12c-22.8,0-36.24,19.8-36.24,46.47c0,27.5,15.12,45.65,38.16,45.65
		C212.52,147.38,230.52,130.05,230.52,114.38z"/>
</g>
</svg>
