<?xml version="1.0" encoding="utf-8"?>
<!-- Generator: Adobe Illustrator 16.0.4, SVG Export Plug-In . SVG Version: 6.00 Build 0)  -->
<!DOCTYPE svg PUBLIC "-//W3C//DTD SVG 1.1//EN" "http://www.w3.org/Graphics/SVG/1.1/DTD/svg11.dtd">
<svg version="1.1" id="レイヤー_1" xmlns="http://www.w3.org/2000/svg" xmlns:xlink="http://www.w3.org/1999/xlink" x="0px"
	 y="0px" width="256px" height="256px" viewBox="0 0 256 256" enable-background="new 0 0 256 256" xml:space="preserve">
<g>
	<path d="M1.2,168L84.24,40.68h18V163.6h24v16.77h-24V234H85.68v-53.62H1.2V168z M85.68,163.6V82.75c0-8.25,0.72-18.15,0.72-18.15
		h-0.48c0,0-3.84,7.7-8.4,14.57l-56.16,83.87v0.55H85.68z"/>
	<path d="M132.21,137.2c0-55.55,15-99.82,60.75-99.82s60.5,44.27,60.5,99.82c0,56.1-14.75,100.1-60.5,100.1
		S132.21,193.3,132.21,137.2z M235.46,137.2c0-45.92-9.25-81.95-42.5-81.95c-33.5,0-42.75,36.02-42.75,81.95
		c0,46.2,9.25,82.22,42.75,82.22C226.21,219.42,235.46,183.4,235.46,137.2z"/>
</g>
</svg>
