<?xml version="1.0" encoding="utf-8"?>
<!-- Generator: Adobe Illustrator 16.0.4, SVG Export Plug-In . SVG Version: 6.00 Build 0)  -->
<!DOCTYPE svg PUBLIC "-//W3C//DTD SVG 1.1//EN" "http://www.w3.org/Graphics/SVG/1.1/DTD/svg11.dtd">
<svg version="1.1" id="レイヤー_1" xmlns="http://www.w3.org/2000/svg" xmlns:xlink="http://www.w3.org/1999/xlink" x="0px"
	 y="0px" width="256px" height="256px" viewBox="0 0 256 256" enable-background="new 0 0 256 256" xml:space="preserve">
<g>
	<path d="M21.07,168l83.04-127.32h18V163.6h24v16.77h-24V234h-16.56v-53.62H21.07V168z M105.56,163.6V82.75
		c0-8.25,0.72-18.15,0.72-18.15h-0.48c0,0-3.84,7.7-8.4,14.57l-56.16,83.87v0.55H105.56z"/>
	<path d="M148.59,216.95h39.5V75.05c0-5.5,0.25-10.73,0.25-10.73h-0.5c0,0-1.75,4.12-8.75,11.55L160.34,96.5l-11-12.37l39.75-43.45
		h16v176.27h38.75V234h-95.25V216.95z"/>
</g>
</svg>
