<?xml version="1.0" encoding="utf-8"?>
<!-- Generator: Adobe Illustrator 16.0.4, SVG Export Plug-In . SVG Version: 6.00 Build 0)  -->
<!DOCTYPE svg PUBLIC "-//W3C//DTD SVG 1.1//EN" "http://www.w3.org/Graphics/SVG/1.1/DTD/svg11.dtd">
<svg version="1.1" id="レイヤー_1" xmlns="http://www.w3.org/2000/svg" xmlns:xlink="http://www.w3.org/1999/xlink" x="0px"
	 y="0px" width="256px" height="256px" viewBox="0 0 256 256" enable-background="new 0 0 256 256" xml:space="preserve">
<g>
	<path d="M22,196.32c0,0,18,22.83,45,22.83c21,0,40.25-17.05,40.25-41.8c0-27.22-21.25-41.25-44.25-41.25H51l-4.25-11.27l44-56.65
		C95.5,62.13,100,57.45,100,57.45V56.9c0,0-5,0.83-14.25,0.83h-66V40.68H122.5v12.65L70,119.88c22.25,1.38,55,15.12,55,56.92
		c0,33-24.5,60.5-57.75,60.5c-34.5,0-55.75-26.4-55.75-26.4L22,196.32z"/>
	<path d="M221,75.6c4.75-10.45,9.75-17.87,9.75-17.87v-0.55c0,0-4.5,0.55-13.25,0.55h-82.25V40.68H249.5v13.2L168,234h-18L221,75.6z
		"/>
</g>
</svg>
