<?xml version="1.0" encoding="utf-8"?>
<!-- Generator: Adobe Illustrator 16.0.4, SVG Export Plug-In . SVG Version: 6.00 Build 0)  -->
<!DOCTYPE svg PUBLIC "-//W3C//DTD SVG 1.1//EN" "http://www.w3.org/Graphics/SVG/1.1/DTD/svg11.dtd">
<svg version="1.1" id="レイヤー_1" xmlns="http://www.w3.org/2000/svg" xmlns:xlink="http://www.w3.org/1999/xlink" x="0px"
	 y="0px" width="256px" height="256px" viewBox="0 0 256 256" enable-background="new 0 0 256 256" xml:space="preserve">
<g>
	<path d="M7.92,168L90.97,40.68h18V163.6h24v16.77h-24V234H92.41v-53.62H7.92V168z M92.41,163.6V82.75c0-8.25,0.72-18.15,0.72-18.15
		h-0.48c0,0-3.84,7.7-8.4,14.57l-56.16,83.87v0.55H92.41z"/>
	<path d="M137.04,146.55c0-48.4,22.08-109.17,74.16-109.17c18.72,0,30.96,7.97,30.96,7.97l-6.24,16.77c0,0-10.56-6.88-24.48-6.88
		c-35.28,0-53.28,39.87-56.16,77.55h0.48c8.16-13.75,25.2-22.55,42.72-22.55c30.72,0,52.56,25.85,52.56,62.42
		c0,40.15-23.52,64.62-53.04,64.62C161.28,237.3,137.04,198.8,137.04,146.55z M234,172.95c0-27.5-15.12-45.65-38.16-45.65
		c-22.56,0-40.8,17.33-40.8,33c0,25.85,17.52,59.12,42.72,59.12C220.56,219.42,234,199.62,234,172.95z"/>
</g>
</svg>
