<?xml version="1.0" encoding="utf-8"?>
<!-- Generator: Adobe Illustrator 16.0.4, SVG Export Plug-In . SVG Version: 6.00 Build 0)  -->
<!DOCTYPE svg PUBLIC "-//W3C//DTD SVG 1.1//EN" "http://www.w3.org/Graphics/SVG/1.1/DTD/svg11.dtd">
<svg version="1.1" id="レイヤー_1" xmlns="http://www.w3.org/2000/svg" xmlns:xlink="http://www.w3.org/1999/xlink" x="0px"
	 y="0px" width="256px" height="256px" viewBox="0 0 256 256" enable-background="new 0 0 256 256" xml:space="preserve">
<g>
	<path d="M16.92,168L99.97,40.68h18V163.6h24v16.77h-24V234h-16.56v-53.62H16.92V168z M101.41,163.6V82.75
		c0-8.25,0.72-18.15,0.72-18.15h-0.48c0,0-3.84,7.7-8.4,14.57l-56.16,83.87v0.55H101.41z"/>
	<path d="M221.88,75.6c4.56-10.45,9.36-17.87,9.36-17.87v-0.55c0,0-4.32,0.55-12.72,0.55h-78.96V40.68h109.68v13.2L171,234h-17.28
		L221.88,75.6z"/>
</g>
</svg>
