<?xml version="1.0" encoding="utf-8"?>
<!-- Generator: Adobe Illustrator 16.0.4, SVG Export Plug-In . SVG Version: 6.00 Build 0)  -->
<!DOCTYPE svg PUBLIC "-//W3C//DTD SVG 1.1//EN" "http://www.w3.org/Graphics/SVG/1.1/DTD/svg11.dtd">
<svg version="1.1" id="レイヤー_1" xmlns="http://www.w3.org/2000/svg" xmlns:xlink="http://www.w3.org/1999/xlink" x="0px"
	 y="0px" width="256px" height="256px" viewBox="0 0 256 256" enable-background="new 0 0 256 256" xml:space="preserve">
<g>
	<path d="M11.52,168L94.57,40.68h18V163.6h24v16.77h-24V234H96.01v-53.62H11.52V168z M96.01,163.6V82.75
		c0-8.25,0.72-18.15,0.72-18.15h-0.48c0,0-3.84,7.7-8.4,14.57l-56.16,83.87v0.55H96.01z"/>
	<path d="M139.44,221.62c0-67.92,86.4-76.72,86.4-128.97c0-21.17-13.92-37.12-35.04-37.12c-24.72,0-37.68,26.4-37.68,26.4
		l-12.48-9.62c0,0,15.36-34.92,51.12-34.92c32.16,0,51.36,23.92,51.36,54.17c0,64.9-85.2,73.97-85.44,125.4h88.08V234H140.4
		C139.68,229.6,139.44,225.47,139.44,221.62z"/>
</g>
</svg>
