<?xml version="1.0" encoding="utf-8"?>
<!-- Generator: Adobe Illustrator 16.0.4, SVG Export Plug-In . SVG Version: 6.00 Build 0)  -->
<!DOCTYPE svg PUBLIC "-//W3C//DTD SVG 1.1//EN" "http://www.w3.org/Graphics/SVG/1.1/DTD/svg11.dtd">
<svg version="1.1" id="レイヤー_1" xmlns="http://www.w3.org/2000/svg" xmlns:xlink="http://www.w3.org/1999/xlink" x="0px"
	 y="0px" width="256px" height="256px" viewBox="0 0 256 256" enable-background="new 0 0 256 256" xml:space="preserve">
<g>
	<path d="M12.63,196.32c0,0,18,22.83,45,22.83c21,0,40.25-17.05,40.25-41.8c0-27.22-21.25-41.25-44.25-41.25h-12l-4.25-11.27
		l44-56.65c4.75-6.05,9.25-10.72,9.25-10.72V56.9c0,0-5,0.83-14.25,0.83h-66V40.68h102.75v12.65l-52.5,66.55
		c22.25,1.38,55,15.12,55,56.92c0,33-24.5,60.5-57.75,60.5c-34.5,0-55.75-26.4-55.75-26.4L12.63,196.32z"/>
	<path d="M132.63,146.55c0-48.4,23-109.17,77.25-109.17c19.5,0,32.25,7.97,32.25,7.97l-6.5,16.77c0,0-11-6.88-25.5-6.88
		c-36.75,0-55.5,39.87-58.5,77.55h0.5c8.5-13.75,26.25-22.55,44.5-22.55c32,0,54.75,25.85,54.75,62.42
		c0,40.15-24.5,64.62-55.25,64.62C157.88,237.3,132.63,198.8,132.63,146.55z M233.63,172.95c0-27.5-15.75-45.65-39.75-45.65
		c-23.5,0-42.5,17.33-42.5,33c0,25.85,18.25,59.12,44.5,59.12C219.63,219.42,233.63,199.62,233.63,172.95z"/>
</g>
</svg>
