<?xml version="1.0" encoding="utf-8"?>
<!-- Generator: Adobe Illustrator 16.0.4, SVG Export Plug-In . SVG Version: 6.00 Build 0)  -->
<!DOCTYPE svg PUBLIC "-//W3C//DTD SVG 1.1//EN" "http://www.w3.org/Graphics/SVG/1.1/DTD/svg11.dtd">
<svg version="1.1" id="レイヤー_1" xmlns="http://www.w3.org/2000/svg" xmlns:xlink="http://www.w3.org/1999/xlink" x="0px"
	 y="0px" width="256px" height="256px" viewBox="0 0 256 256" enable-background="new 0 0 256 256" xml:space="preserve">
<g>
	<path d="M7.08,168L90.13,40.68h18V163.6h24v16.77h-24V234H91.57v-53.62H7.08V168z M91.57,163.6V82.75c0-8.25,0.72-18.15,0.72-18.15
		h-0.48c0,0-3.84,7.7-8.4,14.57l-56.16,83.87v0.55H91.57z"/>
	<path d="M163.56,125.65c-12-9.07-20.88-20.9-20.88-39.32c0-25.02,16.8-48.95,50.88-48.95c31.44,0,51.6,20.07,51.6,50.32
		c0,27.5-18.72,50.05-20.64,52.25c13.92,9.08,24.48,21.45,24.48,41.52c0,30.25-23.28,55.82-55.92,55.82
		c-30.48,0-57.12-22.27-57.12-58.85C135.96,147.38,159.72,128.4,163.56,125.65z M177.24,133.9c-5.28,3.57-24.24,18.97-24.24,43.72
		c0,26.12,19.68,42.07,40.08,42.07c19.92,0,38.88-15.67,38.88-38.5C231.96,156.17,202.2,147.65,177.24,133.9z M210.84,132.25
		c3.12-3.3,17.52-20.62,17.52-43.72c0-20.62-14.4-33.55-34.8-33.55c-21.6,0-34.08,14.3-34.08,31.62
		C159.48,111.63,186.6,120.15,210.84,132.25z"/>
</g>
</svg>
