<?xml version="1.0" encoding="utf-8"?>
<!-- Generator: Adobe Illustrator 16.0.4, SVG Export Plug-In . SVG Version: 6.00 Build 0)  -->
<!DOCTYPE svg PUBLIC "-//W3C//DTD SVG 1.1//EN" "http://www.w3.org/Graphics/SVG/1.1/DTD/svg11.dtd">
<svg version="1.1" id="レイヤー_1" xmlns="http://www.w3.org/2000/svg" xmlns:xlink="http://www.w3.org/1999/xlink" x="0px"
	 y="0px" width="256px" height="256px" viewBox="0 0 256 256" enable-background="new 0 0 256 256" xml:space="preserve">
<g>
	<path d="M12.36,168L95.4,40.68h18V163.6h24v16.77h-24V234H96.84v-53.62H12.36V168z M96.84,163.6V82.75
		c0-8.25,0.72-18.15,0.72-18.15h-0.48c0,0-3.84,7.7-8.4,14.57l-56.16,83.87v0.55H96.84z"/>
	<path d="M149.4,196.6c0,0,12.48,22.55,38.16,22.55c23.28,0,42-18.97,42-45.38c0-26.4-18.72-45.37-42.72-45.37
		c-18,0-30.72,10.45-30.72,10.45l-10.56-4.4l9.12-93.77h81.6v17.05h-67.2l-4.8,49.5c-0.72,6.87-1.68,11-1.68,11h0.48
		c0,0,10.56-7.42,25.68-7.42c33.84,0,58.08,28.05,58.08,62.97c0,35.75-25.68,63.52-58.56,63.52c-33.6,0-49.44-27.5-49.44-27.5
		L149.4,196.6z"/>
</g>
</svg>
