<?xml version="1.0" encoding="utf-8"?>
<!-- Generator: Adobe Illustrator 16.0.4, SVG Export Plug-In . SVG Version: 6.00 Build 0)  -->
<!DOCTYPE svg PUBLIC "-//W3C//DTD SVG 1.1//EN" "http://www.w3.org/Graphics/SVG/1.1/DTD/svg11.dtd">
<svg version="1.1" id="レイヤー_1" xmlns="http://www.w3.org/2000/svg" xmlns:xlink="http://www.w3.org/1999/xlink" x="0px"
	 y="0px" width="256px" height="256px" viewBox="0 0 256 256" enable-background="new 0 0 256 256" xml:space="preserve">
<g>
	<path d="M69.88,146.55c0-48.4,23-109.17,77.25-109.17c19.5,0,32.25,7.97,32.25,7.97l-6.5,16.77c0,0-11-6.88-25.5-6.88
		c-36.75,0-55.5,39.87-58.5,77.55h0.5c8.5-13.75,26.25-22.55,44.5-22.55c32,0,54.75,25.85,54.75,62.42
		c0,40.15-24.5,64.62-55.25,64.62C95.13,237.3,69.88,198.8,69.88,146.55z M170.88,172.95c0-27.5-15.75-45.65-39.75-45.65
		c-23.5,0-42.5,17.33-42.5,33c0,25.85,18.25,59.12,44.5,59.12C156.88,219.42,170.88,199.62,170.88,172.95z"/>
</g>
</svg>
