<svg xmlns="http://www.w3.org/2000/svg" width="256" height="64" viewBox="0 0 256 64">
<path fill="#003087" d="M48.018,4.826C45.054,1.448,39.697,0,32.844,0H12.955c-1.402,0-2.594,1.02-2.813,2.402L1.86,54.926c-0.165,1.035,0.637,1.973,1.687,1.973h12.279l3.084-19.56l-0.096,0.612c0.22-1.383,1.402-2.402,2.803-2.402h5.835c11.462,0,20.438-4.655,23.06-18.124c0.078-0.398,0.146-0.786,0.204-1.165c-0.331-0.175-0.331-0.175,0,0C51.496,11.282,50.71,7.894,48.018,4.826"/>
<path fill="#002F86" d="M174.879,29.662h-6.608c-0.632,0-1.224,0.313-1.577,0.837l-9.117,13.426l-3.863-12.902c-0.242-0.807-0.986-1.361-1.829-1.361h-6.495c-0.784,0-1.336,0.772-1.083,1.514l7.276,21.36l-6.845,9.658c-0.536,0.758,0.006,1.805,0.935,1.805h6.602c0.625,0,1.211-0.306,1.568-0.819l21.977-31.72C176.345,30.699,175.803,29.662,174.879,29.662 M130.698,42.459c-0.636,3.757-3.617,6.279-7.422,6.279c-1.906,0-3.434-0.614-4.415-1.775c-0.972-1.15-1.338-2.792-1.03-4.617c0.592-3.725,3.622-6.326,7.368-6.326c1.867,0,3.383,0.619,4.384,1.791C130.59,38.991,130.986,40.641,130.698,42.459 M139.861,29.662h-6.575c-0.563,0-1.043,0.409-1.131,0.966l-0.289,1.838l-0.458-0.666c-1.426-2.066-4.6-2.758-7.769-2.758c-7.264,0-13.469,5.506-14.676,13.226c-0.628,3.853,0.264,7.533,2.448,10.102c2.006,2.359,4.868,3.342,8.279,3.342c5.856,0,9.104-3.76,9.104-3.76l-0.294,1.827c-0.109,0.694,0.427,1.322,1.131,1.322h5.92c0.94,0,1.738-0.682,1.886-1.608l3.555-22.508C141.102,30.29,140.563,29.662,139.861,29.662 M100.406,29.819c-0.751,4.929-4.515,4.929-8.156,4.929h-2.071l1.453-9.202c0.087-0.556,0.566-0.965,1.13-0.965h0.95c2.479,0,4.819,0,6.026,1.411C100.461,26.836,100.679,28.09,100.406,29.819 M98.821,16.96h-13.73c-0.94,0-1.738,0.684-1.886,1.611l-5.551,35.208c-0.11,0.693,0.426,1.322,1.129,1.322h6.558c0.938,0,1.736-0.684,1.883-1.609l1.5-9.5c0.145-0.928,0.945-1.611,1.884-1.611h4.344c9.045,0,14.266-4.375,15.629-13.052c0.613-3.792,0.024-6.773-1.751-8.86C106.876,18.174,103.415,16.96,98.821,16.96"/>
<path fill="#009CDE" d="M245.543,17.927l-5.635,35.852c-0.109,0.694,0.427,1.322,1.129,1.322h5.669c0.938,0,1.738-0.684,1.884-1.61l5.557-35.208c0.11-0.694-0.427-1.322-1.131-1.322h-6.342C246.109,16.961,245.63,17.37,245.543,17.927 M228.631,42.459c-0.636,3.757-3.617,6.279-7.421,6.279c-1.907,0-3.435-0.614-4.415-1.775c-0.975-1.15-1.339-2.792-1.031-4.617c0.592-3.725,3.622-6.326,7.368-6.326c1.868,0,3.384,0.619,4.384,1.791C228.522,38.991,228.919,40.641,228.631,42.459 M237.794,29.662h-6.575c-0.562,0-1.043,0.409-1.131,0.966l-0.289,1.838l-0.46-0.666c-1.424-2.066-4.598-2.758-7.767-2.758c-7.264,0-13.469,5.506-14.676,13.226c-0.629,3.853,0.264,7.533,2.448,10.102c2.006,2.359,4.868,3.342,8.28,3.342c5.855,0,9.103-3.76,9.103-3.76l-0.294,1.827c-0.109,0.694,0.427,1.322,1.131,1.322h5.92c0.94,0,1.739-0.682,1.886-1.608l3.555-22.508C239.035,30.29,238.496,29.662,237.794,29.662 M198.338,29.819c-0.75,4.929-4.514,4.929-8.155,4.929h-2.071l1.453-9.202c0.087-0.556,0.566-0.965,1.13-0.965h0.95c2.479,0,4.819,0,6.026,1.411C198.394,26.836,198.611,28.09,198.338,29.819 M196.754,16.96h-13.73c-0.94,0-1.738,0.684-1.886,1.611l-5.552,35.208c-0.109,0.693,0.429,1.322,1.13,1.322h7.046c0.656,0,1.216-0.479,1.318-1.127l1.576-9.982c0.145-0.928,0.945-1.611,1.884-1.611h4.344c9.045,0,14.266-4.375,15.629-13.052c0.614-3.792,0.024-6.773-1.751-8.86C204.809,18.174,201.348,16.96,196.754,16.96"/>
<path fill="#003087" d="M48.018,4.826C45.054,1.448,39.697,0,32.844,0H12.955c-1.402,0-2.594,1.02-2.813,2.402L1.86,54.926c-0.165,1.035,0.637,1.973,1.687,1.973h12.279l3.084-19.56l-0.096,0.612c0.22-1.383,1.402-2.402,2.803-2.402h5.835c11.462,0,20.438-4.655,23.06-18.124c0.078-0.398,0.146-0.786,0.204-1.165c-0.331-0.175-0.331-0.175,0,0C51.496,11.282,50.71,7.894,48.018,4.826"/>
<path fill="#002F86" d="M22.225,16.326c0.131-0.832,0.666-1.514,1.384-1.859c0.328-0.156,0.692-0.243,1.075-0.243h15.593c1.846,0,3.569,0.121,5.143,0.374c0.452,0.073,0.889,0.156,1.313,0.251c0.425,0.094,0.837,0.2,1.238,0.317c0.2,0.059,0.396,0.119,0.589,0.182c0.773,0.259,1.494,0.56,2.156,0.912c0.781-4.98-0.006-8.367-2.698-11.435C45.053,1.448,39.697,0,32.845,0H12.954c-1.4,0-2.592,1.02-2.812,2.402L1.861,54.924c-0.165,1.037,0.637,1.975,1.685,1.975h12.281l3.084-19.561L22.225,16.326z"/>
<path fill="#009CDE" d="M50.716,16.26L50.716,16.26c-0.06,0.381-0.126,0.767-0.204,1.165c-2.622,13.467-11.597,18.124-23.06,18.124h-5.836c-1.4,0-2.583,1.02-2.801,2.402l-2.988,18.946l-0.848,5.374C14.835,63.178,15.536,64,16.454,64h10.351c1.225,0,2.268-0.893,2.459-2.102l0.101-0.527l1.951-12.364l0.125-0.683c0.191-1.209,1.234-2.102,2.459-2.102h1.549c10.027,0,17.878-4.074,20.173-15.855c0.958-4.923,0.462-9.034-2.071-11.921C52.782,17.572,51.828,16.85,50.716,16.26"/>
<path fill="#012069" d="M47.971,15.166c-0.4-0.117-0.812-0.223-1.237-0.316c-0.425-0.094-0.864-0.177-1.314-0.25c-1.575-0.255-3.296-0.375-5.145-0.375H24.684c-0.384,0-0.749,0.087-1.075,0.244c-0.72,0.345-1.253,1.025-1.384,1.859l-3.314,21.012l-0.096,0.612c0.218-1.383,1.4-2.402,2.801-2.402h5.836c11.463,0,20.438-4.656,23.06-18.124c0.078-0.398,0.144-0.784,0.204-1.165c-0.664-0.351-1.383-0.653-2.156-0.91C48.367,15.286,48.171,15.224,47.971,15.166"/>
</svg>
