<svg xmlns="http://www.w3.org/2000/svg" width="256" height="64" viewBox="0 0 256 64" fill="#fff">
	<path d="M0.2,14.1C0.6,14.1,0.8,14,0.9,14c0.7,0,1.8,0,3.4,0.1c0.8,0,1.4,0,1.7,0c0.5,0,1.4,0,2.9-0.1l5.2-0.3c1.4-0.1,3-0.2,4.8-0.2c3.2,0,5.8,0.5,7.7,1.4c1.9,0.9,3.4,2.3,4.4,4.3c1,1.9,1.6,3.9,1.6,5.8c0,3.2-1.1,6-3.4,8.3c-2.3,2.3-5.3,3.5-9.1,3.5c-1.1,0-2-0.1-2.7-0.3c-0.7-0.2-1.5-0.6-2.5-1.2c-0.4-0.3-0.6-0.5-0.7-0.8c0.1-0.1,0.2-0.2,0.3-0.3c0.3,0,0.6,0.1,0.9,0.2c0.7,0.2,1.6,0.4,2.6,0.4c1.6,0,3.2-0.4,4.6-1.2c1.4-0.8,2.5-1.9,3.3-3.4c0.7-1.5,1.1-3,1.1-4.7c0-1.6-0.4-3.2-1.2-4.7c-0.8-1.5-1.8-2.7-3.1-3.6c-0.7-0.5-1.8-0.9-3.3-1.3c-1.5-0.3-2.6-0.5-3.5-0.5c-2.5,0-4,0.2-4.5,0.6l0,0.4l0.1,3.5l0,0.6c0,0.6-0.1,1.4-0.1,2.6c0,4.2,0.1,6.8,0.2,7.8v1.7l0.4,14.1c0,0.2,0,0.6-0.1,1.1c0,0.6-0.1,1-0.1,1.4c0,1,0.1,1.7,0.2,2.2c0.5,0.1,1.9,0.5,4.3,1c1.1,0.3,1.7,0.4,1.8,0.5c0.2,0.1,0.3,0.2,0.4,0.4c-0.1,0.3-0.2,0.5-0.3,0.6C18.4,54,18.1,54,17.7,54c-0.2,0-0.8,0-1.7-0.2c-1.8-0.2-3.2-0.3-4.2-0.3l-5.4,0.2l-3.2-0.1c-0.2,0-0.8,0-1.8,0.1l0-0.8l4-0.8C6,52,6.4,51.8,6.6,51.7c0.2-0.3,0.3-0.8,0.3-1.7c0-0.2,0-0.6,0-1.2c0-0.4,0-1,0-1.8c0-2.4-0.1-7.6-0.3-15.5c-0.1-3.7-0.1-7.4-0.1-11.3v-0.5c0-1.5-0.2-2.4-0.7-2.8c-0.8-0.7-2.7-1.2-5.7-1.7C0.1,15,0,14.9,0,14.7C0,14.6,0.1,14.4,0.2,14.1"/>
	<path d="M36.6,36.5l0-1c1.4-0.4,2.2-0.7,2.3-0.7c0.8-0.4,1.6-0.9,2.5-1.6c0.9-0.7,1.6-1.5,2.2-2.5c0.3,0,0.5-0.1,0.6-0.1l0.4,0c0.1,1.1,0.1,1.8,0.1,2.3c0,0.1,0,0.6-0.1,1.5v1.8l0,9.5l-0.1,10.1c0,0.8,0.1,1.4,0.4,1.7c0.3,0.3,1.1,0.7,2.5,1.1c0.9,0.2,1.5,0.5,2,0.6c0.1,0.2,0.1,0.3,0.1,0.4c0,0.1-0.1,0.3-0.2,0.5c-0.9,0-2-0.1-3.3-0.2c-1.8-0.2-3-0.2-3.6-0.2c-0.3,0-2,0.1-5.3,0.2c-0.7,0-1.3,0.1-1.9,0.2c-0.1,0-0.3,0-0.5-0.1c-0.1-0.2-0.2-0.3-0.2-0.4c0-0.3,0.2-0.5,0.6-0.7c0.1,0,1.2-0.3,3.4-0.8c0.7-0.1,1.2-0.4,1.4-0.7c0.4-0.5,0.6-1.2,0.6-2.2c0-1.7,0.1-6.3,0.1-13.9c0-1.5-0.1-2.5-0.2-2.8c-0.1-0.3-0.4-0.6-0.9-0.9C39.2,37.2,38.2,36.9,36.6,36.5 M39.4,19.4c0-0.7,0.3-1.4,0.8-1.9c0.6-0.5,1.2-0.8,2-0.8c0.8,0,1.5,0.3,2.1,0.9c0.6,0.6,0.9,1.2,0.9,1.9c0,0.7-0.4,2.7-1,3.3c-0.6,0.6-1.2-0.5-2-0.5s-1.5-0.3-2-0.8C39.7,21,39.4,20.2,39.4,19.4"/>
	<path d="M49.4,29.5c-0.1-0.3-0.1-0.5-0.1-0.7l0-0.4c0.3-0.1,0.7-0.2,1.1-0.2l1.2-0.1c1.9,0,3.1-0.1,3.6-0.1c1.5-0.1,3.1-0.2,4.6-0.3c1-0.1,1.6-0.1,1.8-0.1l0.8,0c0.2,0.3,0.3,0.5,0.3,0.7c0,0.1,0,0.3-0.1,0.5l-0.5,0.1c-1.6,0.2-2.6,0.5-3,0.8c-0.2,0.1-0.3,0.3-0.2,0.4c0,0.4,0.3,0.9,0.9,1.5c2.7,3.2,4.6,5.3,5.6,6.2c1.9-2.9,3.1-4.7,3.5-5.5c0.4-0.8,0.5-1.4,0.5-1.9c0-0.5-0.2-0.9-0.7-1.2c-0.4-0.3-1.4-0.6-2.9-0.7c-0.2-0.3-0.3-0.5-0.3-0.6l0.1-0.3l0.9-0.1c0.2,0,0.6,0,1.2,0c1,0,1.9,0,2.8,0c0.5,0,1.3-0.1,2.5-0.2c1.2-0.1,2.1-0.2,2.7-0.2l1.5-0.1c0.3,0.1,0.4,0.3,0.5,0.5c0,0.1,0,0.3,0,0.4c-0.3,0.1-0.8,0.2-1.3,0.3c-1.2,0.2-2.3,0.7-3.4,1.5c-0.8,0.6-1.6,1.4-2.3,2.6l-4.3,6.6l5.1,5.8c2.3,2.9,3.8,4.5,4.3,5c0.5,0.5,1.1,0.9,1.7,1.2c0.6,0.3,1.4,0.6,2.6,0.8c0,0.3,0.1,0.5,0.1,0.7c0,0.2,0,0.4-0.1,0.6c-0.4,0-2.4,0.1-6,0.2c-0.2,0-1.3,0.1-3.2,0.2c-0.6,0.1-1.2,0.1-1.7,0.1c-0.5,0-1.1,0-1.9,0l0-1c0.3-0.1,0.7-0.2,1.1-0.3c1.1-0.3,1.9-0.6,2.4-1c0.3-0.3,0.4-0.5,0.4-0.8c0-0.5-1.6-2.4-4.8-5.9l-2-2.2c-0.9,1-1.8,2.3-2.9,4.1c-0.6,1-1.1,1.8-1.4,2.3c-0.7,0.9-1,1.7-1,2.2c0,0.2,0.2,0.4,0.4,0.6c0.3,0.2,1.1,0.4,2.3,0.6c0.9,0.1,1.5,0.2,1.8,0.3c0.1,0.3,0.1,0.5,0.1,0.7c0,0.1,0,0.4,0,0.6c-1.7,0-3.4,0-5,0.1c-2,0.1-3.5,0.2-4.4,0.3s-1.5,0.2-1.7,0.2c-0.3,0-0.7,0-1.3,0c-0.1-0.3-0.2-0.5-0.2-0.7l0-0.4c0.3-0.2,0.7-0.3,1.1-0.4c1.5-0.2,2.7-0.8,3.8-1.9c1.1-1,3.5-4.3,7.1-9.8l-9.6-10.4c-0.1-0.1-0.3-0.2-0.5-0.4c-0.4-0.2-0.8-0.3-1.4-0.4C50.5,29.7,49.8,29.6,49.4,29.5"/>
	<path d="M104.3,39L91,39.1l-2.5,0c-1,0-2,0-3.1,0.1c-0.2,0.7-0.3,1.1-0.3,1.4l0,0.3v0.3l0,1.6c0,1.3,0.4,3,1.3,4.9c0.8,2,2.1,3.4,3.6,4.5c1.6,1,3.5,1.6,5.9,1.6c1.3-0.1,2.3-0.2,3-0.5c0.8-0.2,1.8-0.8,3.2-1.7l2.4-1.9l0.2,1.3c0,0.2,0,0.3,0,0.5c-1,1.3-2.2,2.4-3.8,3.3c-1.5,0.9-3.1,1.6-4.6,2.1c-0.7,0.2-2,0.3-3.7,0.3c-1.6,0-3.1-0.3-4.6-1c-2.2-1-4-2.5-5.3-4.7c-1.3-2.1-1.9-4.8-1.9-7.8c0-1,0.2-2.2,0.5-3.7c0.4-1.5,1-3.1,2-4.9c0.6-1.2,1.4-2.1,2.3-2.9c1.3-1.1,2.5-1.8,3.5-2.2c1.4-0.6,3.1-0.9,5-0.9c2,0,3.7,0.4,5,1.1c1.8,1,3.1,2.3,3.9,3.8c0.9,1.6,1.3,3,1.3,4.3V39 M85.8,37.8h1.6c1.1,0,4.5-0.2,10-0.5c0.9,0,1.4-0.1,1.6-0.3c0.4-0.4,0.6-0.8,0.6-1.1c0-0.7-0.2-1.5-0.7-2.3c-0.4-0.9-1.1-1.5-2-2c-0.9-0.5-2-0.7-3.2-0.7c-2.6,0-4.6,1-6.1,2.9C86.4,35.2,85.8,36.6,85.8,37.8"/>
	<path d="M106.6,15.5v-0.7c0.6-0.2,1.3-0.4,2-0.6c1.1-0.4,2.7-0.9,4.9-1.6h1.6c0,1.1,0,1.7,0,1.8c0,18.1-0.1,28.9-0.2,32.4c-0.1,2.1-0.1,3.1-0.1,3.3c0,2.5,0.1,3.8,0.3,4.1c0.3,0.4,1.1,0.7,2.4,0.8c1.4,0.2,2.2,0.3,2.4,0.5c0.2,0.1,0.3,0.2,0.3,0.5c0,0.2,0,0.4-0.1,0.5c-0.1,0.1-0.3,0.1-0.5,0.1c-0.2,0-1.3,0-3.5-0.1l-4.3-0.2l-5.6,0.3c-0.4,0-0.6,0-0.8-0.2c-0.1-0.1-0.2-0.3-0.2-0.5c0-0.2,0.1-0.4,0.2-0.5c0.1-0.1,0.9-0.3,2.4-0.5c1.4-0.2,2.3-0.4,2.5-0.6c0.2-0.2,0.3-0.5,0.4-1.1c0.1-0.8,0.1-3,0.1-6.7l0-7.6l0.1-7.9l0-7.9l0.1-3.9c0-0.8-0.1-1.3-0.4-1.7c-0.2-0.3-0.8-0.7-1.6-1C107.9,16.1,107.1,15.8,106.6,15.5"/>
	<path d="M165.7,21.7l0.3,4.6c0.1,1.4,0.2,2.4,0.2,2.9l-0.9,0.2c-1.4-3.1-3.1-5.4-5.1-6.9c-2-1.5-4.5-2.3-7.4-2.3c-3.6,0-6.4,0.4-8.4,1.3c-2.9,1.2-5.4,3.4-7.4,6.5c-2.1,3.1-3.1,6.8-3.1,11.1c0,2.5,0.4,4.7,1.1,6.7c0.8,2,1.8,3.8,3.2,5.6c1.4,1.7,3,3.2,4.9,4.5c1.2,0.8,2.7,1.5,4.4,1.9c1,0.2,2.4,0.3,4.3,0.3c1.2,0,2.6-0.2,4.1-0.5c1.5-0.3,2.6-0.8,3.4-1.4c0.8-0.6,1.3-1.2,1.5-2c0.3-0.7,0.4-2.2,0.4-4.3c0-3.5-0.2-5.6-0.7-6.1c-0.5-0.6-1.9-1-4.4-1.1l-1.2-0.1l-0.8,0c-0.1,0-0.3-0.1-0.5-0.1l-0.5-0.8c0-0.1,0.1-0.2,0.2-0.4c1.1-0.2,3.4-0.2,6.9-0.2c0.8,0,2.1,0,3.9,0.1l3.1,0.1l2.8,0c0.5,0,1.2,0,2,0.1c0.1,0,0.2,0.1,0.3,0.1c0,0,0.1,0.1,0.1,0.3c0,0.2,0,0.5-0.2,0.9c-0.9,0.2-1.5,0.3-2,0.3l-2,0c-0.7,0-1.2,0.2-1.6,0.7c-0.2,0.2-0.3,1-0.3,2.3l0,4c0,2.7-0.1,4.5-0.3,5.2c-0.1,0.5-0.4,0.8-0.8,1.2c-0.4,0.4-1.2,0.8-2.4,1.3c-1.8,0.7-3.4,1.2-4.8,1.4c-2.7,0.5-5.3,0.7-7.8,0.7c-4,0-7.3-0.5-9.9-1.5c-2.6-1-4.8-2.5-6.6-4.3c-1.9-1.8-3.2-3.7-4-5.5c-1.2-2.7-1.8-5.5-1.8-8.4c0-3.6,0.9-7,2.8-10.4c1.9-3.4,4.9-6.2,9.1-8.3c2.9-1.5,6.9-2.3,12-2.3c3.5,0,6.4,0.3,8.6,0.9C162.7,20.2,164.4,20.9,165.7,21.7"/>
	<path d="M173.5,51.4l-0.1-0.4c0-0.2,0.1-0.4,0.4-0.7l2-0.2l2.8-0.3c0.2-0.1,0.4-0.2,0.5-0.4c0.2-0.3,0.3-1.1,0.4-2.5c0.7-7.4,1-11.8,1-12.9c0-1.2-0.1-1.9-0.4-2.2c-0.3-0.3-1-0.6-2.3-0.9c-0.7-0.2-1.3-0.4-1.7-0.6l0.2-1c2.4-0.7,4-1.4,4.9-2c1.2-0.9,2.2-2.1,3.1-3.7l1.1,0.1c0,1.1-0.1,3.6-0.4,7.3l-0.1,0.6c0,0.1,0,0.3,0,0.6c1-1.4,2.1-2.7,3.5-3.9l0.8-0.7c0.3-0.3,0.7-0.6,1-0.7c1.6-0.8,2.8-1.1,3.5-1.1c1,0.1,1.7,0.5,2.3,1.2c0.6,0.7,0.8,1.5,0.7,2.5c-0.1,0.7-0.3,1.3-0.8,1.7c-0.6,0.5-1.3,0.7-2.1,0.6c-0.4,0-1-0.3-2-0.7c-1-0.5-1.7-0.7-2-0.7c-0.6-0.1-1.1,0-1.3,0.2c-0.7,0.4-1.5,1.4-2.5,2.8c-0.8,1.1-1.2,2.1-1.3,3l-0.3,5.5l-0.5,6.5c0,0.8,0,1.2,0.1,1.5c0.1,0.2,0.3,0.4,0.6,0.6c2.4,0.4,3.7,0.7,4.2,0.8c0.3,0,0.5,0.1,0.7,0.1c0.9,0.1,1.6,0.3,1.9,0.6c0.2,0.1,0.3,0.3,0.3,0.5c0,0.1-0.1,0.3-0.3,0.5C185.4,52.1,179.5,51.8,173.5,51.4"/>
	<path d="M199.2,23.7l0-1c1.4-0.4,2.2-0.7,2.3-0.7c0.8-0.4,1.6-0.9,2.5-1.6c0.9-0.7,1.6-1.5,2.2-2.5c0.3,0,0.5-0.1,0.6-0.1l0.4,0c0.1,1.1,0.1,1.8,0.1,2.3c0,0.1,0,0.6-0.1,1.5v1.8l0,9.5L207.3,43c0,0.8,0.1,1.4,0.4,1.7c0.3,0.3,1.1,0.7,2.5,1.1c0.9,0.2,1.5,0.5,2,0.6c0.1,0.2,0.1,0.3,0.1,0.4c0,0.1-0.1,0.3-0.2,0.5c-0.9,0-2-0.1-3.3-0.2c-1.8-0.2-3-0.2-3.6-0.2c-0.3,0-2,0.1-5.3,0.2c-0.7,0-1.3,0.1-1.9,0.2c-0.1,0-0.3,0-0.5-0.1c-0.1-0.2-0.2-0.3-0.2-0.4c0-0.3,0.2-0.6,0.6-0.7c0.1,0,1.2-0.3,3.4-0.8c0.7-0.1,1.2-0.4,1.4-0.7c0.4-0.5,0.6-1.2,0.6-2.2c0-1.7,0.1-6.3,0.1-13.9c0-1.5-0.1-2.5-0.2-2.8c-0.1-0.3-0.4-0.6-0.9-0.9S200.7,24,199.2,23.7 M202,6.5c0-0.7,0.3-1.4,0.8-1.9s1.2-0.8,2-0.8c0.8,0,1.5,0.3,2.1,0.9c0.6,0.6,0.9,1.2,0.9,1.9c0,0.7,0,3.5-0.6,4.1c-0.6,0.6-1.7-1.3-2.5-1.3c-0.8,0-1.5-0.3-2-0.8C202.3,8.1,202,7.4,202,6.5"/>
	<path d="M236.5,34l0-0.9l0-3.8l0-7.1c0-2-0.2-3.2-0.6-3.8c-0.4-0.5-1.7-1.1-3.8-1.6c-0.1,0-0.4-0.1-0.7-0.2v-0.4c0-0.2,0-0.4,0.1-0.7c2.9-0.3,5.4-0.8,7.5-1.5l1.6,0c0.1,1.5,0.1,3.1,0.1,4.9l-0.1,12.3l0.2,13.9l-0.1,7.4c0,1.5,0.1,2.4,0.3,2.6c0.4,0.4,1.4,0.7,2.8,0.7c0.3,0,0.7,0,1.2,0.1v0.6c0,0.1,0,0.3,0,0.5c-0.7,0.1-1.3,0.3-2.1,0.4l-4.6,0.9c-0.7,0.1-1.2,0.2-1.6,0.2v-3.1c-0.4,0.1-0.9,0.3-1.7,0.6c-3.3,1.4-6.4,2.1-9.2,2.1c-1.7,0-3.4-0.5-5.2-1.7c-1.8-1.1-3.1-2.6-4-4.6c-0.9-2-1.4-4-1.4-6c0-1.8,0.3-3.6,0.9-5.3c0.6-1.7,1.4-3.1,2.4-4.2c0.6-0.7,1.5-1.4,2.7-2.2c1.2-0.7,2.1-1.2,2.9-1.4c1.9-0.5,3.2-0.7,3.8-0.7c2.9,0,5.3,0.4,7.1,1.3C235.7,33.7,236.2,33.9,236.5,34 M236.5,53.8c0.1-1.4,0.1-4.4,0.1-8.8c0-3.8-0.2-6.2-0.5-7.2c-0.4-1-1.2-1.9-2.6-2.8c-1.4-0.9-3-1.3-4.7-1.3c-2.4,0-4.5,1-6.2,2.9c-1.7,1.9-2.6,4.7-2.6,8.4c0,3.3,0.9,5.9,2.8,7.8s4.1,2.9,6.9,2.9c1.6,0,3-0.2,4.3-0.6C235.2,54.6,236.1,54.2,236.5,53.8"/>
	<path d="M256,55.8c0,1.7-1.7,4.2-3.3,4.2c-1.7,0-2.7-2.6-2.7-4.2c0-1.7,1.4-3,3-3C254.6,52.8,256,54.1,256,55.8"/>
</svg>
