<svg xmlns="http://www.w3.org/2000/svg" width="256" height="64" viewBox="0 0 256 64">
<path fill="#1D70BF" d="M223.735,0c5.024,0,9.783,1.17,14.02,3.247c0.667,0.316,1.331,0.664,1.996,1.047l-2.945,2.637l-4.426-4.576l-7.47,6.663l-4.438-4.842l-13.914,12.542l8.92,9.831l-3.506,3.083l8.787,9.847l-3.486,3.076l12.557,13.975l7.453-6.86l6.443,7.353c-1.281,0.996-2.677,1.934-4.216,2.8C234.852,62.479,229.466,64,223.735,64c-17.625,0-31.999-14.376-31.999-31.999C191.736,14.375,206.11,0,223.735,0L223.735,0"/>
<path fill="#1D70BF" d="M217.902,29.978l7.61-6.853l6.852,7.611l-7.608,6.85L217.902,29.978L217.902,29.978"/>
<path fill="#1D70BF" d="M223.314,43.127l7.609-6.852l6.853,7.609l-7.609,6.854L223.314,43.127L223.314,43.127"/>
<path fill="#1D70BF" d="M212.459,16.983l7.609-6.851l6.85,7.609l-7.608,6.851L212.459,16.983L212.459,16.983"/>
<path fill="#1D70BF" d="M226.422,13.296l5.706-5.138l5.139,5.707l-5.707,5.14L226.422,13.296L226.422,13.296"/>
<path fill="#1D70BF" d="M236.562,36.832l5.708-5.14l5.139,5.708l-5.707,5.139L236.562,36.832L236.562,36.832"/>
<path fill="#1D70BF" d="M241.582,48.359l5.706-5.141l5.14,5.707l-5.707,5.139L241.582,48.359L241.582,48.359"/>
<path fill="#1D70BF" d="M243.882,21.939l3.804-3.426l3.426,3.805l-3.804,3.425L243.882,21.939L243.882,21.939"/>
<path fill="#1D70BF" d="M239.02,10.635l3.806-3.425l3.425,3.804l-3.805,3.425L239.02,10.635L239.02,10.635"/>
<path fill="#1D70BF" d="M248.745,33.243l3.805-3.425l3.425,3.804l-3.803,3.426L248.745,33.243L248.745,33.243"/>
<path fill="#1D70BF" d="M231.683,24.773l5.706-5.141l5.139,5.707l-5.705,5.138L231.683,24.773L231.683,24.773"/>
<path fill="#1D70BF" d="M14.958,26.484h-0.256L9.883,44.703H5.94L0.025,18.817h4.089l4.089,19.315h0.256l4.747-19.315h3.249l5.076,19.315h0.254l3.724-19.315h4.272l-5.915,25.886h-3.943L14.958,26.484"/>
<path fill="#1D70BF" d="M45.96,40.688v2.773c-1.642,0.951-3.833,1.682-6.462,1.682c-6.133,0-8.652-3.797-8.652-9.567c0-5.549,2.811-9.565,8.287-9.565c4.563,0,7.375,2.958,7.375,8.909v1.35H34.606c0,4.382,1.788,6.317,5.55,6.317C42.127,42.586,43.952,41.893,45.96,40.688z M34.68,33.824h8.359c-0.182-3.835-2.044-5.367-4.016-5.367C36.796,28.457,35.08,30.173,34.68,33.824"/>
<path fill="#1D70BF" d="M53.626,27.361c1.096-0.583,2.957-1.352,4.929-1.352c4.527,0,6.974,3.141,6.974,8.983c0,6.826-3.285,10.149-8.579,10.149c-1.936,0-4.93-0.621-7.12-1.791V17.869l3.797-0.913V27.361z M53.59,42.002c1.168,0.512,2.446,0.584,3.359,0.584c2.702,0,4.747-1.68,4.747-7.593c0-4.638-1.681-6.135-4.127-6.135c-1.46,0-2.519,0.402-3.979,1.205V42.002"/>
<path fill="#1D70BF" d="M82.141,39.227h0.183l7.813-20.41h4.527v25.886h-3.942V25.937h-0.33l-7.447,18.766h-2.337l-7.448-18.327h-0.328v18.327h-3.286V18.817h4.418L82.141,39.227"/>
<path fill="#1D70BF" d="M98.68,35.575c0-6.389,3.506-9.565,8.324-9.565c4.82,0,8.325,3.176,8.325,9.565c0,6.244-3.322,9.567-8.325,9.567C102.002,45.143,98.68,41.819,98.68,35.575L98.68,35.575z M111.495,35.575c0-4.928-2.008-7.009-4.491-7.009c-2.41,0-4.49,2.081-4.49,7.009c0,5.004,1.899,7.011,4.49,7.011C109.597,42.586,111.495,40.579,111.495,35.575"/>
<path fill="#1D70BF" d="M118.798,28.712c1.643-0.986,5.111-2.702,9.309-2.702c4.383,0,6.025,1.716,6.025,5.476v13.217h-3.797V32.326c0-2.884-1.423-3.395-3.285-3.395c-1.461,0-3.323,0.658-4.455,1.314v14.458h-3.797V28.712"/>
<path fill="#1D70BF" d="M152.641,40.688v2.773c-1.642,0.951-3.832,1.682-6.461,1.682c-6.133,0-8.653-3.797-8.653-9.567c0-5.549,2.812-9.565,8.289-9.565c4.564,0,7.376,2.958,7.376,8.909v1.35h-11.902c0,4.382,1.788,6.317,5.549,6.317C148.809,42.586,150.635,41.893,152.641,40.688z M141.361,33.824h8.359c-0.182-3.835-2.045-5.367-4.016-5.367C143.477,28.457,141.763,30.173,141.361,33.824"/>
<path fill="#1D70BF" d="M167.393,26.631h3.907l-6.608,18.255c-1.826,5.04-4.054,7.667-8.251,7.667v-2.992c2.481,0,4.015-1.973,4.892-4.675l-7.011-18.255h4.018l4.673,13.435h0.218L167.393,26.631"/>
</svg>
