<?xml version="1.0" encoding="utf-8"?>
<!-- Generator: Adobe Illustrator 16.0.4, SVG Export Plug-In . SVG Version: 6.00 Build 0)  -->
<!DOCTYPE svg PUBLIC "-//W3C//DTD SVG 1.1//EN" "http://www.w3.org/Graphics/SVG/1.1/DTD/svg11.dtd">
<svg version="1.1" id="レイヤー_1" xmlns="http://www.w3.org/2000/svg" xmlns:xlink="http://www.w3.org/1999/xlink" x="0px"
	 y="0px" width="256px" height="256px" viewBox="0 0 256 256" enable-background="new 0 0 256 256" xml:space="preserve">
<path d="M183,161h-11.6l-4-4c14.3-16.6,23-38.2,23-61.8C190.3,42.6,147.7,0,95.1,0C42.6,0,0,42.6,0,95.1s42.6,95.1,95.1,95.1
	c23.6,0,45.2-8.6,61.8-22.9l4,4V183l73.2,73l21.8-21.8L183,161 M95.1,161c-36.4,0-65.9-29.5-65.9-65.9s29.5-65.9,65.9-65.9
	c36.4,0,65.9,29.5,65.9,65.9S131.5,161,95.1,161"/>
</svg>
