<?xml version="1.0" encoding="utf-8"?>
<!-- Generator: Adobe Illustrator 16.0.4, SVG Export Plug-In . SVG Version: 6.00 Build 0)  -->
<!DOCTYPE svg PUBLIC "-//W3C//DTD SVG 1.1//EN" "http://www.w3.org/Graphics/SVG/1.1/DTD/svg11.dtd">
<svg version="1.1" id="レイヤー_1" xmlns="http://www.w3.org/2000/svg" xmlns:xlink="http://www.w3.org/1999/xlink" x="0px"
	 y="0px" width="256px" height="256px" viewBox="0 0 256 256" enable-background="new 0 0 256 256" xml:space="preserve">
<path fill-rule="evenodd" clip-rule="evenodd" d="M128,149.3c29.5,0,53.3,23.9,53.3,53.3c0,29.5-23.9,53.3-53.3,53.3
	s-53.3-23.9-53.3-53.3C74.7,173.2,98.5,149.3,128,149.3z"/>
<path fill-rule="evenodd" clip-rule="evenodd" d="M53.3,0c29.5,0,53.3,23.9,53.3,53.3c0,29.5-23.9,53.3-53.3,53.3S0,82.8,0,53.3
	C0,23.9,23.9,0,53.3,0z"/>
<path fill-rule="evenodd" clip-rule="evenodd" d="M0,42.7h256V64H0V42.7z"/>
<path fill-rule="evenodd" clip-rule="evenodd" d="M0,192h256v21.3H0V192z"/>
</svg>
