<?xml version="1.0" encoding="utf-8"?>
<!-- Generator: Adobe Illustrator 16.0.4, SVG Export Plug-In . SVG Version: 6.00 Build 0)  -->
<!DOCTYPE svg PUBLIC "-//W3C//DTD SVG 1.1//EN" "http://www.w3.org/Graphics/SVG/1.1/DTD/svg11.dtd">
<svg version="1.1" id="レイヤー_1" xmlns="http://www.w3.org/2000/svg" xmlns:xlink="http://www.w3.org/1999/xlink" x="0px"
	 y="0px" width="256px" height="256px" viewBox="0 0 256 256" enable-background="new 0 0 256 256" xml:space="preserve">
<path fill="#160D0D" d="M244.8,0H16.3C8.5,0,0,4.6,0,12.5v228.5c0,7.8,8.5,15.1,16.3,15.1H143v-99h-34v-39h34V88.3
	c0-33.2,20.4-51.2,50-51.2c14.2,0,27,1.1,30,1.5v34.7l-20.7,0c-16.1,0-19.3,7.6-19.3,18.9V118h39.8l-5,39H183v99h61.8
	c7.8,0,11.2-7.3,11.2-15.1V12.5C256,4.6,252.6,0,244.8,0z"/>
</svg>
