<?xml version="1.0" encoding="utf-8"?>
<!-- Generator: Adobe Illustrator 16.0.4, SVG Export Plug-In . SVG Version: 6.00 Build 0)  -->
<!DOCTYPE svg PUBLIC "-//W3C//DTD SVG 1.1//EN" "http://www.w3.org/Graphics/SVG/1.1/DTD/svg11.dtd">
<svg version="1.1" id="レイヤー_1" xmlns="http://www.w3.org/2000/svg" xmlns:xlink="http://www.w3.org/1999/xlink" x="0px"
	 y="0px" width="256px" height="256px" viewBox="0 0 256 256" enable-background="new 0 0 256 256" xml:space="preserve">
<path d="M128,0C57.3,0,0,57.3,0,128s57.3,128,128,128s128-57.3,128-128S198.7,0,128,0z M199.7,150.3c0,11.4-8.8,18.7-18.8,18.7
	h-56.3L75,197l15.8-27.9h-15c-10.1,0-17.9-7.3-17.9-18.699V95.8c0-11.4,7.8-20.1,17.9-20.1h105c10.101,0,18.8,8.7,18.8,20.1v54.5
	H199.7z"/>
</svg>
