<?xml version="1.0" encoding="utf-8"?>
<!-- Generator: Adobe Illustrator 16.0.4, SVG Export Plug-In . SVG Version: 6.00 Build 0)  -->
<!DOCTYPE svg PUBLIC "-//W3C//DTD SVG 1.1//EN" "http://www.w3.org/Graphics/SVG/1.1/DTD/svg11.dtd">
<svg version="1.1" id="レイヤー_1" xmlns="http://www.w3.org/2000/svg" xmlns:xlink="http://www.w3.org/1999/xlink" x="0px"
	 y="0px" width="256px" height="256px" viewBox="0 0 256 256" enable-background="new 0 0 256 256" xml:space="preserve">
<path d="M173.3,63.6h-9.6l-2.2,4.8h-67l-2.2-4.8h-9.6c-6.2,0-11,5-11,11.2v116.4c0,6.2,4.8,10.899,11,10.899h90.7
	c6.199,0,11-4.699,11-10.899V74.8C184.4,68.6,179.6,63.6,173.3,63.6z M105.5,168.3H91v-14.5h14.5V168.3z M105.5,139.3H91v-12.9h14.5
	V139.3z M105.5,111.9H91V97.4h14.5V111.9z M165,168.3h-51.5v-14.5H165V168.3z M165,139.3h-51.5v-14.5H165V139.3z M165,111.9h-51.5
	V97.4H165V111.9z"/>
<path d="M128,0C57.3,0,0,57.3,0,128s57.3,128,128,128s128-57.3,128-128S198.7,0,128,0z M194,191.2c0,11.5-9.1,20.5-20.7,20.5H82.7
	c-11.5,0-20.7-9-20.7-20.5V74.8c0-11.5,9.1-20.9,20.7-20.9h5.4l-2.2-4.8h84.3l-2.2,4.8h5.4c11.5,0,20.699,9.3,20.699,20.9v116.4H194
	L194,191.2z"/>
</svg>
