<?xml version="1.0" encoding="utf-8"?>
<!-- Generator: Adobe Illustrator 16.0.4, SVG Export Plug-In . SVG Version: 6.00 Build 0)  -->
<!DOCTYPE svg PUBLIC "-//W3C//DTD SVG 1.1//EN" "http://www.w3.org/Graphics/SVG/1.1/DTD/svg11.dtd">
<svg version="1.1" id="レイヤー_1" xmlns="http://www.w3.org/2000/svg" xmlns:xlink="http://www.w3.org/1999/xlink" x="0px"
	 y="0px" width="256px" height="256px" viewBox="0 0 256 256" enable-background="new 0 0 256 256" xml:space="preserve">
<path d="M68.4,123.9c8.8-1.3,15.6-8.9,15.6-18.1c0-10.1-8.2-18.3-18.3-18.3c-10.1,0-18.3,8.2-18.3,18.3c0,9.1,6.7,16.7,15.4,18
	c0.9-0.1,1.8-0.1,2.8-0.1C66.6,123.8,67.5,123.9,68.4,123.9z"/>
<path d="M194.9,123.9c8.699-1.4,15.3-9,15.3-18c0-10.1-8.2-18.3-18.3-18.3c-10.102,0-18.301,8.2-18.301,18.3
	c0,9.1,6.699,16.7,15.399,18c1-0.1,1.899-0.1,2.899-0.1S193.9,123.8,194.9,123.9z"/>
<path d="M150.8,98.6c0-12.1-9.899-22-22-22c-12.1,0-22,9.9-22,22s9.9,22,22,22C140.9,120.5,150.8,110.7,150.8,98.6z"/>
<path d="M128,0C57.3,0,0,57.3,0,128s57.3,128,128,128s128-57.3,128-128S198.7,0,128,0z M33.6,165H24c0-16.4,9.9-30.8,24.2-37.4
	c-6.4-5.1-10.4-13-10.4-21.8c0-15.4,12.5-27.9,27.9-27.9c15.4,0,27.9,12.5,27.9,27.9c0,8.9-4.2,16.7-10.6,21.9
	c3.1,1.399,6,3.3,8.7,5.399l-6.1,7.601c-4.9-3.9-10.7-6.5-16.8-7.101c-1,0.101-2.1,0.199-3.1,0.199c-1.1,0-2.2-0.1-3.3-0.199
	C46,135.2,33.6,148.4,33.6,165z M166.9,168.2c0-21-17.102-38.101-38.102-38.101S90.7,147.2,90.7,168.2H81c0-19.8,12.1-36.8,29.3-44
	c-8-5.7-13.2-15.1-13.2-25.7c0-17.4,14.2-31.6,31.6-31.6c17.399,0,31.6,14.2,31.6,31.6c0,10.6-5.2,19.9-13.2,25.7
	c17.2,7.2,29.301,24.2,29.301,44H166.9z M195.1,133.6c-1,0.102-2.1,0.2-3.199,0.2c-1,0-2-0.1-3-0.2c-6.199,0.602-12,3.102-16.899,7
	l-6.101-7.5c2.699-2.199,5.601-4,8.699-5.398c-6.5-5.1-10.6-13-10.6-21.9c0-15.4,12.5-27.9,27.9-27.9
	c15.398,0,27.898,12.5,27.898,27.9c0,8.8-4.1,16.6-10.398,21.7c14.3,6.601,24.199,21,24.199,37.399H224
	C224,148.4,211.5,135.1,195.1,133.6z"/>
</svg>
