<?xml version="1.0" encoding="utf-8"?>
<!-- Generator: Adobe Illustrator 16.0.4, SVG Export Plug-In . SVG Version: 6.00 Build 0)  -->
<!DOCTYPE svg PUBLIC "-//W3C//DTD SVG 1.1//EN" "http://www.w3.org/Graphics/SVG/1.1/DTD/svg11.dtd">
<svg version="1.1" id="レイヤー_1" xmlns="http://www.w3.org/2000/svg" xmlns:xlink="http://www.w3.org/1999/xlink" x="0px"
	 y="0px" width="256px" height="256px" viewBox="0 0 256 256" enable-background="new 0 0 256 256" xml:space="preserve">
<path d="M128,0C57.3,0,0,57.3,0,128s57.3,128,128,128s128-57.3,128-128S198.7,0,128,0z M186,169.1c0,9.4-5.9,18.5-15.3,18.5H84.9
	c-9.4,0-18.1-9.1-18.1-18.5V83.3c0-9.4,8.7-14.9,18.1-14.9h85.8c9.399,0,15.3,5.5,15.3,14.9V99h-8.1V83.3c0-4.1-3.101-5.2-7.2-5.2
	H84.9c-4.1,0-8.4,1.1-8.4,5.2v85.8c0,4.101,4.3,8.801,8.4,8.801h85.8c4.1,0,7.2-4.7,7.2-8.801v-33h8.1V169.1L186,169.1z
	 M149.9,156.9l-30.3-30.4l7.7-7.6l22.601,22.7l46-45.6l7.6,7.7L149.9,156.9z"/>
</svg>
