<?xml version="1.0" encoding="utf-8"?>
<!-- Generator: Adobe Illustrator 16.0.4, SVG Export Plug-In . SVG Version: 6.00 Build 0)  -->
<!DOCTYPE svg PUBLIC "-//W3C//DTD SVG 1.1//EN" "http://www.w3.org/Graphics/SVG/1.1/DTD/svg11.dtd">
<svg version="1.1" id="レイヤー_1" xmlns="http://www.w3.org/2000/svg" xmlns:xlink="http://www.w3.org/1999/xlink" x="0px"
	 y="0px" width="256px" height="256px" viewBox="0 0 256 256" enable-background="new 0 0 256 256" xml:space="preserve">
<path d="M128,0C57.3,0,0,57.3,0,128s57.3,128,128,128s128-57.3,128-128S198.7,0,128,0z M177.9,145.6c0,6.2-2.5,12-6.601,16.4
	l-42.6,45.4L85,162.1c-4.3-4.5-6.9-10.399-6.9-16.699V73.8c0-4.1,2.5-7.7,6.1-9.2c3.3-1.4,7-0.6,9.6,2.1l34.4,35.2l32.6-35.1
	c2.7-2.8,6.8-3.6,10.4-2.1c3.899,1.5,6.7,5.1,6.7,9.1V145.6L177.9,145.6z M87.7,74.6v70.8c0,3.699,1.6,7.399,4.1,10l36.1,37.399
	v-77.7l-0.3,0.2L87.7,74.6z"/>
</svg>
