<?xml version="1.0" encoding="utf-8"?>
<!-- Generator: Adobe Illustrator 16.0.4, SVG Export Plug-In . SVG Version: 6.00 Build 0)  -->
<!DOCTYPE svg PUBLIC "-//W3C//DTD SVG 1.1//EN" "http://www.w3.org/Graphics/SVG/1.1/DTD/svg11.dtd">
<svg version="1.1" id="レイヤー_1" xmlns="http://www.w3.org/2000/svg" xmlns:xlink="http://www.w3.org/1999/xlink" x="0px"
	 y="0px" width="256px" height="256px" viewBox="0 0 256 256" enable-background="new 0 0 256 256" xml:space="preserve">
<path d="M192,102.4V64c0-35.325-28.675-64-64-64S64,28.675,64,64v38.4c-14.081,0-25.6,11.519-25.6,25.6v102.4
	c0,14.074,11.519,25.6,25.6,25.6h128c14.075,0,25.6-11.525,25.6-25.6V128C217.6,113.919,206.075,102.4,192,102.4 M166.4,102.4H89.6
	V64c0-21.25,17.15-38.4,38.4-38.4s38.4,17.15,38.4,38.4V102.4z"/>
</svg>
