<?xml version="1.0" encoding="utf-8"?>
<!-- Generator: Adobe Illustrator 16.0.4, SVG Export Plug-In . SVG Version: 6.00 Build 0)  -->
<!DOCTYPE svg PUBLIC "-//W3C//DTD SVG 1.1//EN" "http://www.w3.org/Graphics/SVG/1.1/DTD/svg11.dtd">
<svg version="1.1" id="レイヤー_1" xmlns="http://www.w3.org/2000/svg" xmlns:xlink="http://www.w3.org/1999/xlink" x="0px"
	 y="0px" width="256px" height="256px" viewBox="0 0 256 256" enable-background="new 0 0 256 256" xml:space="preserve">
<path d="M55,256c-2,0-4.1-0.6-5.8-1.9c-3.5-2.6-4.9-7.2-3.6-11.5l25.6-82.1L4.1,110.8c-3.5-2.6-5-7.2-3.7-11.5
	c1.3-4.2,5.1-7.1,9.4-7.1h82.4l26.3-85.1c1.3-4.2,5.1-7.1,9.4-7.1c4.3,0,8.1,2.9,9.4,7.1l26.4,85.1h82.4c4.3,0,8.1,2.9,9.4,7.1
	c1.3,4.2-0.2,8.9-3.7,11.5l-67.2,49.7l25.7,82.1c1.3,4.2-0.1,8.9-3.6,11.5c-1.7,1.3-3.7,2-5.8,2c-2,0-4.1-0.6-5.8-2L128,203.1
	L60.8,254C59.1,255.3,57.1,256,55,256z"/>
</svg>
