<?xml version="1.0" encoding="utf-8"?>
<!-- Generator: Adobe Illustrator 16.0.4, SVG Export Plug-In . SVG Version: 6.00 Build 0)  -->
<!DOCTYPE svg PUBLIC "-//W3C//DTD SVG 1.1//EN" "http://www.w3.org/Graphics/SVG/1.1/DTD/svg11.dtd">
<svg version="1.1" id="レイヤー_1" xmlns="http://www.w3.org/2000/svg" xmlns:xlink="http://www.w3.org/1999/xlink" x="0px"
	 y="0px" width="256px" height="256px" viewBox="0 0 256 256" enable-background="new 0 0 256 256" xml:space="preserve">
<path d="M15.8,18.8c1.2-0.2,1.9-0.3,2.3-0.3c2.2,0,5.9,0.1,11,0.4c2.7,0.1,4.5,0.1,5.5,0.1c1.4,0,4.5-0.1,9.2-0.4
	l16.8-1C65,17.2,70.1,17,76,17c10.3,0,18.5,1.5,24.7,4.4c6.1,2.9,10.8,7.5,14.2,13.7c3.3,6.2,5,12.4,5,18.6
	c0,10.3-3.6,19.2-10.8,26.7c-7.2,7.5-17,11.2-29.2,11.2c-3.4,0-6.3-0.3-8.6-1c-2.3-0.7-4.9-2-7.9-4c-1.3-0.9-2-1.7-2.3-2.7
	c0.3-0.5,0.6-0.8,1.1-1c0.9,0,1.9,0.2,2.9,0.6c2.2,0.8,5.1,1.2,8.5,1.2c5.2,0,10.1-1.3,14.7-3.9c4.6-2.6,8.1-6.2,10.5-10.9
	c2.4-4.7,3.5-9.7,3.5-15c0-5.1-1.2-10.1-3.7-14.9s-5.8-8.7-9.8-11.6c-2.3-1.6-5.8-3-10.6-4.1c-4.8-1.1-8.4-1.7-11.1-1.7
	c-8.1,0-13,0.6-14.5,1.8l-0.1,1.4L52.7,37l-0.1,2c-0.1,1.8-0.2,4.5-0.2,8.2c0,13.4,0.2,21.7,0.6,25v5.5l1.3,45
	c0,0.7-0.1,1.9-0.2,3.7c-0.2,1.8-0.2,3.3-0.2,4.6c0,3.2,0.3,5.6,0.8,7.2c1.6,0.5,6.2,1.5,13.8,3.2c3.5,0.899,5.5,1.399,5.8,1.5
	c0.5,0.199,1,0.6,1.4,1.3c-0.3,1-0.6,1.6-1,1.899c-0.4,0.301-1.3,0.4-2.5,0.4c-0.8,0-2.6-0.1-5.5-0.5c-5.7-0.6-10.1-0.9-13.3-0.9
	L36,145.8l-10.4-0.3c-0.7,0-2.6,0.1-5.7,0.2l-0.1-2.601l12.8-2.5c2.1-0.6,3.4-1.199,3.9-1.8c0.7-0.899,1-2.7,1-5.399
	c0-0.601,0-1.9,0.1-3.801c0.1-1.399,0.1-3.3,0.1-5.7c0-7.7-0.3-24.3-1-49.6c-0.3-11.8-0.4-23.8-0.4-36.1v-1.7c0-4.7-0.7-7.7-2.2-9
	c-2.4-2.2-8.5-4-18.2-5.3c-0.3-0.7-0.5-1.3-0.5-1.8C15.2,20.2,15.4,19.5,15.8,18.8"/>
<path d="M36.8,165.9c-0.2-0.9-0.3-1.7-0.3-2.4l-0.1-1.4c1.1-0.3,2.3-0.6,3.7-0.6l3.9-0.2c6.1-0.1,9.9-0.2,11.4-0.3
	c4.9-0.3,9.8-0.6,14.8-1c3.1-0.2,5-0.4,5.7-0.4l2.5-0.1c0.6,1,0.8,1.7,0.9,2.2c0,0.399-0.1,0.899-0.3,1.5l-1.6,0.3
	c-5.1,0.8-8.3,1.6-9.6,2.4C67.3,166.3,67,166.8,67,167.3c0.1,1.101,1,2.8,2.8,4.9c8.8,10.3,14.7,16.899,17.8,19.8
	c6.2-9.2,9.9-15.1,11-17.7c1.2-2.6,1.7-4.6,1.6-6c-0.1-1.6-0.8-3-2.1-4c-1.3-1-4.5-1.8-9.5-2.2c-0.6-0.8-0.9-1.5-0.9-2.1l0.3-1
	l2.7-0.3c0.7,0,1.9-0.101,3.7-0.101c3,0,6.1,0,9.1-0.199c1.5-0.101,4.2-0.301,8-0.601s6.7-0.5,8.7-0.6l4.9-0.2
	c0.9,0.4,1.4,0.9,1.5,1.6c0,0.301,0,0.801-0.1,1.4c-1.1,0.3-2.5,0.7-4.1,1.1c-3.8,0.801-7.4,2.301-10.9,4.7
	c-2.6,1.8-5.1,4.5-7.5,8.2l-13.9,21l16.3,18.4c7.5,9.1,12.1,14.5,13.8,16.1c1.7,1.6,3.5,2.9,5.3,3.9c1.9,1,4.6,1.8,8.2,2.5
	c0.1,0.8,0.2,1.6,0.2,2.199c0,0.5-0.101,1.2-0.301,2c-1.3,0.101-7.7,0.2-19.3,0.5c-0.7,0-4.1,0.301-10.2,0.7
	c-1.9,0.2-3.7,0.3-5.5,0.4c-1.6,0.3-3.6,0.3-6,0.3l0.2-3.2c1-0.3,2.2-0.6,3.5-0.899c3.6-0.9,6.1-2,7.6-3.301
	c0.9-0.8,1.3-1.699,1.3-2.6c-0.1-1.5-5.2-7.8-15.3-18.8l-6.6-7.101c-2.8,3.101-5.9,7.5-9.3,13.101c-1.9,3.3-3.4,5.7-4.6,7.3
	c-2.2,2.9-3.3,5.3-3.2,7.2c0,0.6,0.5,1.3,1.4,1.899c0.9,0.601,3.4,1.301,7.5,2c2.8,0.4,4.8,0.801,5.9,1.101
	c0.3,0.899,0.4,1.7,0.4,2.2c0,0.399,0,1.1-0.1,2.1c-5.4,0-10.7,0.1-15.9,0.4c-6.5,0.3-11.2,0.699-14.1,1c-2.9,0.3-4.7,0.5-5.4,0.6
	c-0.8,0-2.2,0-4,0c-0.3-1-0.5-1.7-0.5-2.2l0.1-1.399c1-0.5,2.2-0.9,3.7-1.2c4.7-0.7,8.8-2.7,12.3-5.9s11.1-13.7,22.8-31.5
	L49.5,169.4c-0.4-0.4-1-0.801-1.6-1.2c-1.1-0.601-2.7-1-4.6-1.2C40.1,166.5,38,166.1,36.8,165.9"/>
<path d="M222.9,72.1l1.1,14.8c0.4,4.5,0.6,7.5,0.6,9.2l-2.699,0.5c-4.4-9.9-9.801-17.3-16.301-22.3
	c-6.5-4.9-14.399-7.4-23.8-7.4c-11.5,0-20.399,1.4-26.7,4.2C145.9,75.1,137.9,82,131.4,91.8c-6.601,9.8-9.9,21.7-9.9,35.5
	c0,8,1.2,15.2,3.6,21.601c2.4,6.399,5.8,12.3,10.2,17.8c4.4,5.5,9.601,10.3,15.601,14.3c3.899,2.7,8.5,4.7,14,6.1
	c3.1,0.7,7.6,1.101,13.699,1.101c3.9,0,8.2-0.601,13-1.7c4.801-1.1,8.301-2.6,10.7-4.5c2.4-1.9,4.101-4,4.9-6.3
	c0.899-2.3,1.3-6.9,1.3-13.7c0-11.3-0.8-17.8-2.2-19.7c-1.5-1.899-6.2-3.1-14.1-3.7l-3.9-0.3l-2.6,0.101
	c-0.4-0.101-0.9-0.2-1.601-0.301l-1.5-2.399c0-0.3,0.2-0.8,0.7-1.3c3.4-0.5,10.7-0.801,22.101-0.801c2.5,0,6.699,0.101,12.399,0.2
	l10.101,0.4l9.1-0.101c1.8,0,3.9,0.101,6.3,0.2c0.4,0.101,0.7,0.2,0.9,0.3c0.1,0.2,0.2,0.4,0.2,0.801c0,0.699-0.2,1.6-0.5,2.699
	c-2.7,0.601-4.801,0.9-6.301,0.9l-6.3-0.1c-2.2,0-3.899,0.699-5.2,2.199c-0.699,0.7-1,3.2-1,7.301l0.101,12.8
	c0,8.8-0.4,14.399-1.101,16.8c-0.399,1.4-1.199,2.7-2.399,3.9c-1.2,1.1-3.8,2.5-7.8,4c-5.7,2.3-10.801,3.8-15.4,4.6
	c-8.6,1.5-16.9,2.2-24.9,2.2c-12.899,0-23.5-1.601-31.699-4.9c-8.2-3.3-15.3-7.899-21.3-13.7c-6-5.899-10.2-11.8-12.7-17.8
	c-3.8-8.8-5.8-17.7-5.8-26.8c0-11.4,3-22.5,9-33.4s15.7-19.8,29.1-26.6c9.5-4.8,22.3-7.2,38.5-7.2c11.2,0,20.399,1,27.5,2.9
	C213,67.4,218.7,69.6,222.9,72.1"/>
</svg>
