<?xml version="1.0" encoding="utf-8"?>
<!-- Generator: Adobe Illustrator 16.0.4, SVG Export Plug-In . SVG Version: 6.00 Build 0)  -->
<!DOCTYPE svg PUBLIC "-//W3C//DTD SVG 1.1//EN" "http://www.w3.org/Graphics/SVG/1.1/DTD/svg11.dtd">
<svg version="1.1" id="レイヤー_1" xmlns="http://www.w3.org/2000/svg" xmlns:xlink="http://www.w3.org/1999/xlink" x="0px"
	 y="0px" width="256px" height="256px" viewBox="0 0 256 256" enable-background="new 0 0 256 256" xml:space="preserve">
<path d="M201.143,85.333h-12.189V60.952C188.953,27.307,161.643,0,128,0C94.357,0,67.047,27.307,67.047,60.952h23.161
	c0-20.845,16.946-37.791,37.791-37.791c20.846,0,37.792,16.946,37.792,37.791v24.381H54.857c-13.471,0-24.381,10.911-24.381,24.381
	v121.905c0,13.47,10.91,24.381,24.381,24.381h146.286c13.471,0,24.381-10.911,24.381-24.381V109.714
	C225.523,96.244,214.613,85.333,201.143,85.333"/>
</svg>
