<?xml version="1.0" encoding="utf-8"?>
<!-- Generator: Adobe Illustrator 16.0.4, SVG Export Plug-In . SVG Version: 6.00 Build 0)  -->
<!DOCTYPE svg PUBLIC "-//W3C//DTD SVG 1.1//EN" "http://www.w3.org/Graphics/SVG/1.1/DTD/svg11.dtd">
<svg version="1.1" id="レイヤー_1" xmlns="http://www.w3.org/2000/svg" xmlns:xlink="http://www.w3.org/1999/xlink" x="0px"
	 y="0px" width="256px" height="256px" viewBox="0 0 256 256" enable-background="new 0 0 256 256" xml:space="preserve">
<g>
	<g>
		<path d="M142.33,143.88c1.74-2.96,3.03-6.44,3.86-10.43c0.84-3.98,1.26-8.23,1.26-12.76c0-4.99-0.38-9.56-1.16-13.67
			c-0.77-4.11-2.01-7.64-3.72-10.59c-1.72-2.96-3.94-5.25-6.64-6.89c-2.71-1.64-5.98-2.46-9.81-2.46c-3.7,0-6.89,0.86-9.54,2.59
			c-2.67,1.73-4.87,4.06-6.59,7.01c-1.7,2.96-2.99,6.4-3.83,10.34c-0.83,3.94-1.26,8.13-1.26,12.57c0,5.12,0.4,9.76,1.2,13.91
			c0.79,4.16,2.04,7.72,3.73,10.7c1.69,2.98,3.89,5.26,6.58,6.88c2.69,1.61,5.92,2.42,9.71,2.42c3.7,0,6.89-0.85,9.58-2.59
			C138.38,149.21,140.58,146.84,142.33,143.88z M128,0C57.31,0,0,57.31,0,128c0,70.69,57.31,128,128,128c70.69,0,128-57.31,128-128
			C256,57.31,198.69,0,128,0z M154.31,184.26c-3.08,1-6.24,1.48-9.51,1.48c-3.53,0-6.76-0.47-9.72-1.41
			c-2.94-0.96-5.51-2.36-7.69-4.23c-2.17-1.88-3.93-4.23-5.24-7.05c-1.33-2.83-2.11-6.09-2.39-9.79c-4.58-0.64-8.55-2.05-11.94-4.26
			c-3.39-2.2-6.21-5.09-8.47-8.68c-2.24-3.6-3.91-7.85-5.01-12.74c-1.11-4.88-1.66-10.3-1.66-16.25c0-7.66,0.91-14.29,2.71-19.89
			c1.81-5.59,4.27-10.22,7.37-13.86c3.1-3.64,6.73-6.33,10.87-8.08c4.14-1.74,8.52-2.62,13.14-2.62c5.55,0,10.39,0.98,14.49,2.94
			c4.12,1.96,7.55,4.78,10.27,8.46c2.74,3.68,4.78,8.14,6.11,13.37c1.34,5.24,2.01,11.12,2.01,17.67c0,6.89-0.74,12.93-2.24,18.12
			c-1.5,5.2-3.54,9.59-6.14,13.21c-2.59,3.62-5.66,6.47-9.18,8.54c-3.53,2.06-7.31,3.42-11.36,4.06c0.66,3.79,2.2,6.84,4.63,9.15
			c2.42,2.31,5.83,3.46,10.23,3.46c2.11,0,4.2-0.36,6.25-1.04c2.04-0.69,4.12-1.86,6.24-3.49l5.22,7.95
			C160.39,181.6,157.39,183.26,154.31,184.26z"/>
	</g>
</g>
</svg>
