<svg xmlns="http://www.w3.org/2000/svg" width="256" height="256" viewBox="0 0 256 256"><path d="M252.548 203.56l-102.165-176.959c-4.605-7.97-13.178-12.92-22.385-12.92-9.203 0-17.774 4.95-22.378 12.92l-102.164 176.952c-4.607 7.972-4.607 17.876 0 25.847 4.598 7.973 13.176 12.92 22.377 12.92h204.337c9.203 0 17.779-4.947 22.378-12.92 4.601-7.971 4.601-17.876 0-25.84m-124.55 1.118c-8.389 0-15.199-6.807-15.199-15.206 0-8.393 6.811-15.195 15.199-15.195 8.396 0 15.202 6.803 15.202 15.195 0 8.399-6.806 15.206-15.202 15.206m9.369-48.654c0 5.174-4.196 9.358-9.369 9.358-5.172 0-9.358-4.185-9.358-9.358l-5.841-68.744c0-8.397 6.811-15.2 15.199-15.2 8.396 0 15.202 6.803 15.202 15.2l-5.833 68.744z"/></svg>
