<svg xmlns="http://www.w3.org/2000/svg" width="256" height="256" viewBox="0 0 256 256"><path d="M127.999 0c-70.581 0-127.999 57.415-127.999 127.999 0 70.58 57.418 128.001 127.999 128.001 70.585 0 128.001-57.421 128.001-128.001 0-70.584-57.416-127.999-128.001-127.999m0 200.89c-9.521 0-17.25-7.729-17.25-17.259 0-9.525 7.729-17.25 17.25-17.25 9.528 0 17.254 7.725 17.254 17.25 0 9.529-7.726 17.259-17.254 17.259m10.634-55.225c0 5.872-4.763 10.626-10.634 10.626-5.869 0-10.621-4.754-10.621-10.626l-6.629-78.025c0-9.527 7.729-17.25 17.25-17.25 9.528 0 17.254 7.723 17.254 17.25l-6.62 78.025z"/></svg>