<?xml version="1.0" encoding="utf-8"?>
<!-- Generator: Adobe Illustrator 16.0.4, SVG Export Plug-In . SVG Version: 6.00 Build 0)  -->
<!DOCTYPE svg PUBLIC "-//W3C//DTD SVG 1.1//EN" "http://www.w3.org/Graphics/SVG/1.1/DTD/svg11.dtd">
<svg version="1.1" id="レイヤー_1" xmlns="http://www.w3.org/2000/svg" xmlns:xlink="http://www.w3.org/1999/xlink" x="0px"
	 y="0px" width="256px" height="256px" viewBox="0 0 256 256" enable-background="new 0 0 256 256" xml:space="preserve">
<path fill="#333333" d="M256,48.6c-9.4,4.2-19.5,7-30.2,8.3c10.8-6.5,19.2-16.8,23.1-29.1c-10.1,6-21.4,10.4-33.4,12.7
	C206,30.4,192.3,24,177.2,24c-29,0-52.5,23.5-52.5,52.5c0,4.1,0.5,8.1,1.4,12C82.4,86.3,43.7,65.4,17.8,33.6
	c-4.5,7.8-7.1,16.8-7.1,26.4c0,18.2,9.3,34.3,23.4,43.7c-8.6-0.3-16.7-2.6-23.8-6.6c0,0.2,0,0.4,0,0.7c0,25.4,18.1,46.7,42.1,51.5
	c-4.4,1.2-9,1.8-13.8,1.8c-3.4,0-6.7-0.3-9.9-0.9c6.7,20.9,26.1,36.1,49.1,36.5c-18,14.1-40.6,22.5-65.2,22.5
	c-4.2,0-8.4-0.2-12.5-0.7C23.2,223.3,50.9,232,80.5,232c96.6,0,149.4-80,149.4-149.4c0-2.3-0.1-4.5-0.2-6.8
	C240.1,68.4,249,59.1,256,48.6"/>
</svg>
