<?xml version="1.0" encoding="utf-8"?>
<!-- Generator: Adobe Illustrator 16.0.4, SVG Export Plug-In . SVG Version: 6.00 Build 0)  -->
<!DOCTYPE svg PUBLIC "-//W3C//DTD SVG 1.1//EN" "http://www.w3.org/Graphics/SVG/1.1/DTD/svg11.dtd">
<svg version="1.1" id="レイヤー_1" xmlns="http://www.w3.org/2000/svg" xmlns:xlink="http://www.w3.org/1999/xlink" x="0px"
	 y="0px" width="256px" height="256px" viewBox="0 0 256 256">
	<path d="M135.9,146.4c-5.9-4.5-12.1-8.6-18.3-13.8c-8.6-7.2-5.5-17.6,3.5-24.5c7.9-6.2,17.3-13.5,22.1-20.4
		c14.2-21.4,7.6-51.8-14.5-67.7h20l21.7-13.8h-68.7c-49.7,0-87.3,19-84.2,65.2c2.1,31.8,31.1,49,67,45.2
		c-7.6,12.1-2.4,24.2,6.6,33.8c-92.5,2.1-103.2,53.8-81.5,78c14.2,15.5,39.3,21.7,65.2,21.1c30.7-0.3,62.8-11,77.3-31.8
		C164.5,199.9,172.8,174.4,135.9,146.4L135.9,146.4z M256,115.7h-38.3V79.1h-12.8v36.6h-39.7v12.4h39.7v36.2h12.8v-36.2H256V115.7z
		 M115.5,51.9c8.6,22.1,6.9,48-16.6,55.2c-26.6,8.3-46.6-17.6-50.7-43.1C45.1,45.3,49.6,27,67.5,20.8
		C88.9,13.6,106.9,30.8,115.5,51.9L115.5,51.9z M31,191.7c4.8-25.2,35.5-31.8,71.4-31.8c14.2,10,28.6,19.7,34.5,30.4
		c4.1,8.3,3.1,20-4.2,29.3c-9,11-24.2,15.2-38.7,16.2c-26.9,1.4-49.4-9.3-59-21.4C29.9,207.5,29.2,199.6,31,191.7L31,191.7z"/>
</svg>
