<?xml version="1.0" encoding="utf-8"?>
<!-- Generator: Adobe Illustrator 16.0.4, SVG Export Plug-In . SVG Version: 6.00 Build 0)  -->
<!DOCTYPE svg PUBLIC "-//W3C//DTD SVG 1.1//EN" "http://www.w3.org/Graphics/SVG/1.1/DTD/svg11.dtd">
<svg version="1.1" id="レイヤー_1" xmlns="http://www.w3.org/2000/svg" xmlns:xlink="http://www.w3.org/1999/xlink" x="0px"
	 y="0px" width="256px" height="256px" viewBox="0 0 256 256" enable-background="new 0 0 256 256" xml:space="preserve">
<path d="M128,0C57.308,0,0,57.305,0,127.999C0,198.691,57.308,256,128,256c70.693,0,128-57.309,128-128.001
	C256,57.305,198.693,0,128,0z M185.568,169.564c0,12.066-6.043,19.201-19.201,19.201H86.36c-9.366,0-22.402-4.77-22.402-19.201
	V86.357c0-9.37,5.783-19.202,19.202-19.202h83.207c9.365,0,19.201,3.432,19.201,12.801v12.801h-12.801v-6.4
	c0-4.147-2.254-6.4-6.4-6.4H83.16c-4.146,0-6.4,2.253-6.4,6.4v83.207c0,4.15,5.454,6.4,9.601,6.4h80.007c4.146,0,6.4-2.25,6.4-6.4
	v-22.402h12.801V169.564z M147.166,159.963l-32.003-32.002l8.94-9.123l22.635,22.736l45.932-45.575l8.9,9.56L147.166,159.963z"/>
</svg>
