<?xml version="1.0" encoding="utf-8"?>
<!-- Generator: Adobe Illustrator 16.0.4, SVG Export Plug-In . SVG Version: 6.00 Build 0)  -->
<!DOCTYPE svg PUBLIC "-//W3C//DTD SVG 1.1//EN" "http://www.w3.org/Graphics/SVG/1.1/DTD/svg11.dtd">
<svg version="1.1" id="レイヤー_1" xmlns="http://www.w3.org/2000/svg" xmlns:xlink="http://www.w3.org/1999/xlink" x="0px"
	 y="0px" width="256px" height="256px" viewBox="0 0 256 256" enable-background="new 0 0 256 256" xml:space="preserve">
<path d="M128,0C57.3,0,0,57.3,0,128s57.3,128,128,128s128-57.3,128-128S198.7,0,128,0z M147,134.2l-62.2,55.6
	c-6.8,6.8-13.3,9.3-20.1,2.5c-6.9-6.8-4.4-13.3,2.4-20.2l55-62.6C128.9,102.6,153.8,127.3,147,134.2z M193.7,94.6l-20.2,20.2
	c-7.5,7.5-19.8,7.5-27.3,0l-5.2-5.2c-7.5-7.5-7.5-19.8,0-27.3l20.2-20.2c7.5-7.5,19.8-7.5,27.3,0l5.2,5.2
	C201.2,74.8,201.2,87.1,193.7,94.6z"/>
</svg>
