<?xml version="1.0" encoding="utf-8"?>
<!-- Generator: Adobe Illustrator 16.0.4, SVG Export Plug-In . SVG Version: 6.00 Build 0)  -->
<!DOCTYPE svg PUBLIC "-//W3C//DTD SVG 1.1//EN" "http://www.w3.org/Graphics/SVG/1.1/DTD/svg11.dtd">
<svg version="1.1" id="レイヤー_1" xmlns="http://www.w3.org/2000/svg" xmlns:xlink="http://www.w3.org/1999/xlink" x="0px"
	 y="0px" width="256px" height="256px" viewBox="0 0 256 256" enable-background="new 0 0 256 256" xml:space="preserve">
<path d="M128,0C57.307,0,0,57.31,0,127.997C0,198.693,57.307,256,128,256c70.693,0,128-57.307,128-128.003
	C256,57.31,198.693,0,128,0z M198.443,108.805c-10.178,15.325-25.891,22.484-41.605,19.208L96.03,201.643
	c-18.977,15.573-41.424-4.483-28.803-25.61l60.807-70.428c-4.5-12.63-4.025-30.828,2.382-40.334
	c21.128-31.334,52.025-14.086,52.025-14.086L153.639,70.39L156.838,96l19.202,6.402l28.804-22.409
	C204.844,79.994,204.688,99.401,198.443,108.805z"/>
</svg>
