<?xml version="1.0" encoding="utf-8"?>
<!-- Generator: Adobe Illustrator 16.0.4, SVG Export Plug-In . SVG Version: 6.00 Build 0)  -->
<!DOCTYPE svg PUBLIC "-//W3C//DTD SVG 1.1//EN" "http://www.w3.org/Graphics/SVG/1.1/DTD/svg11.dtd">
<svg version="1.1" id="レイヤー_1" xmlns="http://www.w3.org/2000/svg" xmlns:xlink="http://www.w3.org/1999/xlink" x="0px"
	 y="0px" width="256px" height="256px" viewBox="0 0 256 256" enable-background="new 0 0 256 256" xml:space="preserve">
<path d="M128,0C57.308,0,0,57.31,0,128c0,70.693,57.308,128,128,128s128-57.307,128-128C256,57.31,198.692,0,128,0z
	 M175.973,144.019c0,6.162-0.53,13.605-4.67,18.032l-42.566,45.418l-43.778-45.337c-4.28-4.458-4.996-11.829-4.996-18.113V73.591
	c0-4.102,0.625-7.462,4.204-8.935c3.292-1.351,7.04-0.563,9.623,2.057l34.405,35.158l32.607-35.089
	c2.659-2.779,6.77-3.564,10.446-2.113c3.874,1.529,4.726,4.921,4.726,8.922V144.019z"/>
<path d="M128,115.129l-0.033,3.279L89.563,76.792v70.427c0,3.724,0.694,3.792,3.2,6.402l35.204,38.415L128,115.129z"/>
</svg>
