<?xml version="1.0" encoding="utf-8"?>
<!-- Generator: Adobe Illustrator 16.0.4, SVG Export Plug-In . SVG Version: 6.00 Build 0)  -->
<!DOCTYPE svg PUBLIC "-//W3C//DTD SVG 1.1//EN" "http://www.w3.org/Graphics/SVG/1.1/DTD/svg11.dtd">
<svg version="1.1" id="レイヤー_1" xmlns="http://www.w3.org/2000/svg" xmlns:xlink="http://www.w3.org/1999/xlink" x="0px"
	 y="0px" width="256px" height="256px" viewBox="0 0 256 256" enable-background="new 0 0 256 256" xml:space="preserve">
<path d="M68.404,123.948c8.804-1.31,15.584-8.898,15.584-18.062c0-10.083-8.201-18.278-18.281-18.278
	c-10.08,0-18.282,8.195-18.282,18.278c0,9.114,6.71,16.667,15.443,18.04c0.914-0.062,1.834-0.103,2.764-0.103
	C66.56,123.823,67.482,123.882,68.404,123.948z"/>
<path d="M194.873,123.901c8.662-1.431,15.292-8.951,15.292-18.015c0-10.083-8.198-18.278-18.278-18.278s-18.279,8.195-18.279,18.278
	c0,9.11,6.702,16.662,15.433,18.037c0.972-0.075,1.943-0.131,2.921-0.131C192.942,123.792,193.908,123.835,194.873,123.901z"/>
<path d="M150.772,98.56c0-12.114-9.857-21.972-21.975-21.972c-12.118,0-21.974,9.857-21.974,21.972
	c0,12.121,9.856,21.975,21.974,21.975C140.915,120.535,150.772,110.681,150.772,98.56z"/>
<path d="M128.001,0C57.307,0,0,57.311,0,127.999C0,198.692,57.307,256,128.001,256C198.691,256,256,198.692,256,127.999
	C256,57.311,198.691,0,128.001,0z M35.225,163.219H22.427c0-16.439,11.496-28.994,25.788-35.573
	c-6.363-5.129-10.449-12.971-10.449-21.759c0-15.405,12.534-27.941,27.941-27.941c15.408,0,27.942,12.536,27.942,27.941
	c0,8.857-4.154,16.746-10.604,21.872c3.09,1.444,6.015,3.247,8.687,5.4l-6.059,7.589c-4.895-3.938-10.658-6.451-16.82-7.11
	c-1.034,0.119-2.083,0.19-3.146,0.19c-1.136,0-2.248-0.087-3.35-0.219C46.011,135.178,35.225,146.604,35.225,163.219z
	 M166.408,169.62c0-20.984-16.626-39.425-37.61-39.425c-20.985,0-39.18,18.44-39.18,39.425H80.02
	c0-19.784,13.168-38.165,30.365-45.388c-7.99-5.745-13.22-15.099-13.22-25.672c0-17.44,14.189-31.629,31.634-31.629
	c17.444,0,31.633,14.189,31.633,31.629c0,10.573-5.23,19.928-13.22,25.672c17.194,7.223,28.796,25.604,28.796,45.388H166.408z
	 M195.07,133.634c-1.047,0.118-2.106,0.193-3.184,0.193c-1.031,0-2.047-0.065-3.05-0.175c-6.199,0.622-11.999,3.066-16.917,7.032
	l-6.059-7.46c2.678-2.16,5.615-3.985,8.715-5.448c-6.465-5.119-10.63-13.021-10.63-21.89c0-15.405,12.536-27.941,27.94-27.941
	c15.407,0,27.939,12.536,27.939,27.941c0,8.776-4.074,16.611-10.423,21.74c14.279,6.591,24.196,19.162,24.196,35.592h-9.599
	C224.001,146.548,211.499,135.128,195.07,133.634z"/>
</svg>
