<?xml version="1.0" encoding="utf-8"?>
<!-- Generator: Adobe Illustrator 16.0.4, SVG Export Plug-In . SVG Version: 6.00 Build 0)  -->
<!DOCTYPE svg PUBLIC "-//W3C//DTD SVG 1.1//EN" "http://www.w3.org/Graphics/SVG/1.1/DTD/svg11.dtd">
<svg version="1.1" id="レイヤー_1" xmlns="http://www.w3.org/2000/svg" xmlns:xlink="http://www.w3.org/1999/xlink" x="0px"
	 y="0px" width="256px" height="256px" viewBox="0 0 256 256" enable-background="new 0 0 256 256" xml:space="preserve">
<path d="M173.34,63.593l-10.173,0.363v3.2H92.761v-3.2L82.66,63.593c-6.213,0-12.301,3.75-12.301,9.963v118.411
	c0,6.216,6.588,9.601,12.801,9.601h89.607c6.213,0,12.802-3.385,12.802-9.601V73.556C185.569,67.343,179.553,63.593,173.34,63.593z
	 M105.562,166.364H92.761v-12.801h12.801V166.364z M105.562,137.562H92.761v-12.801h12.801V137.562z M105.562,108.759H92.761V95.958
	h12.801V108.759z M163.167,166.364h-51.204v-12.801h51.204V166.364z M163.167,137.562h-51.204v-12.801h51.204V137.562z
	 M163.167,108.759h-51.204V95.958h51.204V108.759z"/>
<path d="M128,0C57.308,0,0,57.302,0,127.999C0,198.692,57.308,256,128,256c70.695,0,128-57.308,128-128.001
	C256,57.302,198.695,0,128,0z M195.17,191.967c0,11.541-10.863,19.201-22.402,19.201H83.16c-11.54,0-22.402-7.66-22.402-19.201
	V73.556c0-11.539,10.862-19.202,22.402-19.202h9.601v-6.4h70.406v6.4h9.601c11.539,0,22.402,7.663,22.402,19.202V191.967z"/>
</svg>
