<?xml version="1.0" encoding="utf-8"?>
<!-- Generator: Adobe Illustrator 16.0.4, SVG Export Plug-In . SVG Version: 6.00 Build 0)  -->
<!DOCTYPE svg PUBLIC "-//W3C//DTD SVG 1.1//EN" "http://www.w3.org/Graphics/SVG/1.1/DTD/svg11.dtd">
<svg version="1.1" id="レイヤー_1" xmlns="http://www.w3.org/2000/svg" xmlns:xlink="http://www.w3.org/1999/xlink" x="0px"
	 y="0px" width="256px" height="256px" viewBox="0 0 256 256" enable-background="new 0 0 256 256" xml:space="preserve">
<path d="M128.001,0C57.308,0,0,57.304,0,128c0,70.692,57.308,128,128.001,128C198.692,256,256,198.692,256,128
	C256,57.304,198.692,0,128.001,0z M146.972,134.163l-62.23,55.642c-6.794,6.844-13.267,9.251-20.117,2.463
	c-6.86-6.798-4.397-13.317,2.403-20.177l55.033-62.646C128.852,102.601,153.775,127.31,146.972,134.163z M193.698,94.601
	l-20.212,20.211c-7.51,7.51-19.808,7.51-27.32,0l-5.173-5.172c-7.513-7.516-7.513-19.811,0-27.327l20.208-20.208
	c7.517-7.513,19.812-7.513,27.327,0l5.17,5.172C201.211,74.79,201.211,87.087,193.698,94.601z"/>
</svg>
