<?xml version="1.0" encoding="utf-8"?>
<!-- Generator: Adobe Illustrator 16.0.4, SVG Export Plug-In . SVG Version: 6.00 Build 0)  -->
<!DOCTYPE svg PUBLIC "-//W3C//DTD SVG 1.1//EN" "http://www.w3.org/Graphics/SVG/1.1/DTD/svg11.dtd">
<svg version="1.1" id="レイヤー_1" xmlns="http://www.w3.org/2000/svg" xmlns:xlink="http://www.w3.org/1999/xlink" x="0px"
	 y="0px" width="256px" height="256px" viewBox="0 0 256 256" enable-background="new 0 0 256 256" xml:space="preserve">
<path d="M128.001,0C57.308,0,0,57.305,0,127.999S57.308,256,128.001,256C198.695,256,256,198.692,256,127.999S198.695,0,128.001,0z
	 M201.57,150.363c0,11.413-9.15,19.201-19.201,19.201h-57.605l-49.801,27.415l14.598-27.415H76.76
	c-10.051,0-19.202-7.788-19.202-19.201V95.958c0-11.413,9.151-22.402,19.202-22.402h105.609c10.051,0,19.201,10.989,19.201,22.402
	V150.363z"/>
</svg>
