<?xml version="1.0" encoding="utf-8"?>
<!-- Generator: Adobe Illustrator 16.0.4, SVG Export Plug-In . SVG Version: 6.00 Build 0)  -->
<!DOCTYPE svg PUBLIC "-//W3C//DTD SVG 1.1//EN" "http://www.w3.org/Graphics/SVG/1.1/DTD/svg11.dtd">
<svg version="1.1" id="レイヤー_1" xmlns="http://www.w3.org/2000/svg" xmlns:xlink="http://www.w3.org/1999/xlink" x="0px"
	 y="0px" width="256px" height="256px" viewBox="0 0 256 256" enable-background="new 0 0 256 256" xml:space="preserve">
<path d="M128,0C57.308,0,0,57.308,0,127.998C0,198.692,57.308,256,128,256c70.692,0,128-57.308,128-128.002
	C256,57.308,198.692,0,128,0z M57.611,134.415h47.994v12.802H57.611V134.415z M57.611,160.019h92.788v12.802H57.611V160.019z
	 M150.398,198.424H57.611v-12.802h92.788V198.424z M198.393,105.611c0,10.451-3.936,16.002-19.198,16.002h-35.195l-25.596,22.403
	v-22.403l0,0c-18.525,0-19.197-5.551-19.197-16.002V73.606c0-10.633,0.487-16.002,15.998-16.002h67.191
	c16.291,0,15.998,5.369,15.998,16.002V105.611z"/>
</svg>
