<?xml version="1.0" encoding="utf-8"?>
<!-- Generator: Adobe Illustrator 16.0.4, SVG Export Plug-In . SVG Version: 6.00 Build 0)  -->
<!DOCTYPE svg PUBLIC "-//W3C//DTD SVG 1.1//EN" "http://www.w3.org/Graphics/SVG/1.1/DTD/svg11.dtd">
<svg version="1.1" id="レイヤー_1" xmlns="http://www.w3.org/2000/svg" xmlns:xlink="http://www.w3.org/1999/xlink" x="0px"
	 y="0px" width="256px" height="256px" viewBox="0 0 256 256" enable-background="new 0 0 256 256" xml:space="preserve">
<path d="M128,0C57.3,0,0,57.3,0,128s57.3,128,128,128s128-57.3,128-128S198.7,0,128,0z M200.1,107.9c-10.199,15.3-26.3,23.4-42,20.1
	l-59.5,75.5c-19,15.6-42.4-4.8-29.7-26l58.5-75.8c-4.5-12.6-3.3-27,3.1-36.5C151.6,33.9,183,51.1,183,51.1l-28.2,21.2l4.7,22.2
	l18.7,6.8l27.3-21.2C205.3,80.2,206.4,98.5,200.1,107.9z"/>
</svg>
