<?xml version="1.0" encoding="utf-8"?>
<!-- Generator: Adobe Illustrator 16.0.4, SVG Export Plug-In . SVG Version: 6.00 Build 0)  -->
<!DOCTYPE svg PUBLIC "-//W3C//DTD SVG 1.1//EN" "http://www.w3.org/Graphics/SVG/1.1/DTD/svg11.dtd">
<svg version="1.1" id="レイヤー_1" xmlns="http://www.w3.org/2000/svg" xmlns:xlink="http://www.w3.org/1999/xlink" x="0px"
	 y="0px" width="256px" height="256px" viewBox="0 0 256 256" enable-background="new 0 0 256 256" xml:space="preserve">
<path d="M128,0C57.3,0,0,57.3,0,128s57.3,128,128,128s128-57.3,128-128S198.7,0,128,0z M56.3,133.1h51.2v15.4H56.3V133.1z
	 M56.3,158.7H148.4V174.1H56.3V158.7z M148.5,199.7H56.3v-15.4H148.4v15.4H148.5z M199.7,105c0,10.5-5.2,17.9-20.5,17.9h-30.7
	l-30.7,23v-23l0,0c-16.8,0-17.9-7.5-17.9-17.9V71.7c0-10.6,2.4-17.9,17.9-17.9h64c16.3,0,17.9,7.3,17.9,17.9V105z"/>
</svg>
